<svg width="582" height="605" viewBox="0 0 582 605" version="1.1" xmlns="http://www.w3.org/2000/svg" xmlns:xlink="http://www.w3.org/1999/xlink">
<title>Parent Onboarding - Opting Out - Page 1.5</title>
<desc>Created using Figma</desc>
<g id="Canvas" transform="translate(-5494 1478)">
<clipPath id="clip-0" clip-rule="evenodd">
<path d="M 5494 -1478L 6076 -1478L 6076 -873L 5494 -873L 5494 -1478Z" fill="#FFFFFF"/>
</clipPath>
<g id="Parent Onboarding - Opting Out - Page 1.5" clip-path="url(#clip-0)">
<path d="M 5494 -1478L 6076 -1478L 6076 -873L 5494 -873L 5494 -1478Z" fill="#EEFAF8"/>
<g id="Congratulations! You">
<use xlink:href="#path0_fill" transform="translate(5728 -1436)" fill="#576478"/>
</g>
<g id="Ellipse">
<use xlink:href="#path1_fill" transform="translate(5702 -1362)" fill="#00C6AD"/>
</g>
<g id="If you already have a CollegeBacker account, an existing 529, or are simply not interested, you can choose to opt out of an account and CollegeBacker will automatically delete this instance of the account linked with your email or student ID.">
<use xlink:href="#path2_fill" transform="translate(5588 -1132)" fill="#576478"/>
</g>
<g id="Vector 2">
<use xlink:href="#path3_stroke" transform="translate(6027 -1461)"/>
</g>
<g id="Log In">
<g id="Rectangle 29">
<use xlink:href="#path4_fill" transform="translate(5685 -1019)" fill="#00C6AD"/>
<mask id="mask0_outline_ins">
<use xlink:href="#path4_fill" fill="white" transform="translate(5685 -1019)"/>
</mask>
<g mask="url(#mask0_outline_ins)">
<use xlink:href="#path5_stroke_2x" transform="translate(5685 -1019)" fill="#00C6AD"/>
</g>
</g>
<g id="[Opt Out]">
<use xlink:href="#path6_fill" transform="translate(5715.86 -1010)" fill="#EEFAF8"/>
</g>
</g>
<g id="No, I&#226;&#128;&#153;d like to keep my account">
<use xlink:href="#path7_fill" transform="translate(5687 -965)" fill="#576478"/>
<use xlink:href="#path8_fill" transform="translate(5687 -965)" fill="#576478"/>
</g>
</g>
</g>
<defs>
<path id="path0_fill" d="M 1.27117 25.32L 5.73117 25.32L 5.73117 22.94L 4.01117 22.94L 4.01117 8.38L 5.73117 8.38L 5.73117 6L 1.27117 6L 1.27117 25.32ZM 14.6551 22.26C 18.9551 22.26 21.9351 19.12 21.9351 15C 21.9351 10.92 18.9551 7.74 14.6551 7.74C 10.3551 7.74 7.37513 10.92 7.37513 15C 7.37513 19.12 10.3551 22.26 14.6551 22.26ZM 14.6551 10.38C 17.1751 10.38 18.9951 12.36 18.9951 15C 18.9951 17.68 17.1751 19.62 14.6551 19.62C 12.1351 19.62 10.3151 17.68 10.3151 15C 10.3151 12.36 12.1351 10.38 14.6551 10.38ZM 23.3802 25.74L 26.1402 25.74L 26.1402 20.92C 26.4002 21.26 27.4402 22.26 29.2402 22.26C 32.2402 22.26 34.2002 20 34.2002 16.76C 34.2002 13.56 32.0802 11.28 29.0802 11.28C 27.3002 11.28 26.2602 12.28 25.9802 12.64L 25.9802 11.54L 23.3802 11.54L 23.3802 25.74ZM 26.0602 16.74C 26.0602 15.08 27.0602 13.72 28.7402 13.72C 30.3002 13.72 31.4202 14.88 31.4202 16.74C 31.4202 18.56 30.3402 19.82 28.7402 19.82C 27.2202 19.82 26.0602 18.7 26.0602 16.74ZM 35.8254 11.54L 34.7054 11.54L 34.7054 13.78L 35.8054 13.78L 35.8054 17.9C 35.8054 20.74 36.9054 22.14 39.4054 22.14C 40.1654 22.14 40.5854 22.04 40.5854 22.04L 40.5854 19.68C 40.3654 19.7 40.2654 19.7 40.0854 19.7C 39.0254 19.7 38.5454 19.38 38.5454 17.82L 38.5454 13.78L 40.5054 13.78L 40.5054 11.54L 38.5454 11.54L 38.5454 9.34L 35.8254 9.34L 35.8254 11.54ZM 41.9889 22L 44.7489 22L 44.7489 11.54L 41.9889 11.54L 41.9889 22ZM 41.7489 9.02C 41.7489 9.92 42.4489 10.6 43.3489 10.6C 44.2689 10.6 44.9689 9.92 44.9689 9.02C 44.9689 8.12 44.2689 7.44 43.3489 7.44C 42.4489 7.44 41.7489 8.12 41.7489 9.02ZM 52.1936 11.28C 50.8336 11.28 49.8336 12.04 49.3936 12.76L 49.3936 11.54L 46.6936 11.54L 46.6936 22L 49.4536 22L 49.4536 15.72C 49.4536 14.6 50.1736 13.76 51.3136 13.76C 52.2536 13.76 53.0536 14.48 53.0536 15.64L 53.0536 22L 55.8136 22L 55.8136 15.96C 55.8136 13.74 55.1736 11.28 52.1936 11.28ZM 58.4084 24.88C 59.3484 25.4 60.8084 25.84 62.2484 25.84C 65.3284 25.84 67.8684 24.58 67.8684 20.68L 67.8684 11.54L 65.2684 11.54L 65.2684 12.64C 64.9684 12.24 63.9084 11.28 62.1484 11.28C 59.1684 11.28 57.0484 13.56 57.0484 16.78C 57.0484 20 59.0284 22.26 62.0484 22.26C 63.8684 22.26 64.8884 21.22 65.1084 20.92L 65.1084 21.4C 65.1084 23.02 63.7284 23.48 62.2284 23.48C 60.7884 23.48 59.5884 22.94 59.2484 22.76L 58.4084 24.88ZM 65.1884 16.76C 65.1884 18.62 64.1084 19.82 62.5084 19.82C 60.9484 19.82 59.8284 18.6 59.8284 16.76C 59.8284 14.92 60.9284 13.72 62.4884 13.72C 64.1084 13.72 65.1884 14.98 65.1884 16.76ZM 81.2406 22.26C 85.5406 22.26 88.5206 19.12 88.5206 15C 88.5206 10.92 85.5406 7.74 81.2406 7.74C 76.9406 7.74 73.9606 10.92 73.9606 15C 73.9606 19.12 76.9406 22.26 81.2406 22.26ZM 81.2406 10.38C 83.7606 10.38 85.5806 12.36 85.5806 15C 85.5806 17.68 83.7606 19.62 81.2406 19.62C 78.7206 19.62 76.9006 17.68 76.9006 15C 76.9006 12.36 78.7206 10.38 81.2406 10.38ZM 93.5057 22.26C 94.8657 22.26 95.8657 21.5 96.3057 20.78L 96.3057 22L 99.0057 22L 99.0057 11.54L 96.2457 11.54L 96.2457 17.82C 96.2457 18.94 95.5257 19.78 94.3857 19.78C 93.4457 19.78 92.6457 19.06 92.6457 17.9L 92.6457 11.54L 89.8857 11.54L 89.8857 17.58C 89.8857 19.8 90.5257 22.26 93.5057 22.26ZM 101.102 11.54L 99.9823 11.54L 99.9823 13.78L 101.082 13.78L 101.082 17.9C 101.082 20.74 102.182 22.14 104.682 22.14C 105.442 22.14 105.862 22.04 105.862 22.04L 105.862 19.68C 105.642 19.7 105.542 19.7 105.362 19.7C 104.302 19.7 103.822 19.38 103.822 17.82L 103.822 13.78L 105.782 13.78L 105.782 11.54L 103.822 11.54L 103.822 9.34L 101.102 9.34L 101.102 11.54ZM 111.926 6L 107.466 6L 107.466 8.38L 109.186 8.38L 109.186 22.94L 107.466 22.94L 107.466 25.32L 111.926 25.32L 111.926 6Z"/>
<path id="path1_fill" d="M 164 82C 164 127.287 127.287 164 82 164C 36.7127 164 0 127.287 0 82C 0 36.7127 36.7127 0 82 0C 127.287 0 164 36.7127 164 82Z"/>
<path id="path2_fill" d="M 1.022 -7L 2.576 -7L 2.576 -16.8L 1.022 -16.8L 1.022 -7ZM 4.74338 -7L 6.26937 -7L 6.26937 -13.048L 7.68338 -13.048L 7.68338 -14.308L 6.26937 -14.308L 6.26937 -14.602C 6.26937 -15.428 6.67537 -15.806 7.41738 -15.806C 7.58538 -15.806 7.78138 -15.778 7.78138 -15.778L 7.78138 -17.08C 7.78138 -17.08 7.52938 -17.108 7.23538 -17.108C 5.93337 -17.108 4.74338 -16.492 4.74338 -14.63L 4.74338 -14.308L 3.94538 -14.308L 3.94538 -13.048L 4.74338 -13.048L 4.74338 -7ZM 16.7012 -4.494L 20.5232 -14.308L 18.9272 -14.308L 16.9812 -8.988L 15.0072 -14.308L 13.3692 -14.308L 16.2672 -7.126L 15.2312 -4.494L 16.7012 -4.494ZM 22.573 -10.64C 22.573 -12.068 23.525 -13.132 24.897 -13.132C 26.255 -13.132 27.249 -12.082 27.249 -10.654C 27.249 -9.226 26.255 -8.176 24.897 -8.176C 23.539 -8.176 22.573 -9.198 22.573 -10.64ZM 21.033 -10.64C 21.033 -8.428 22.657 -6.818 24.897 -6.818C 27.123 -6.818 28.775 -8.456 28.775 -10.654C 28.775 -12.852 27.151 -14.49 24.897 -14.49C 22.699 -14.49 21.033 -12.852 21.033 -10.64ZM 32.5315 -6.818C 33.5115 -6.818 34.2675 -7.364 34.5895 -7.952L 34.5895 -7L 36.0875 -7L 36.0875 -14.308L 34.5615 -14.308L 34.5615 -9.898C 34.5615 -8.89 33.9315 -8.19 32.9655 -8.19C 32.1255 -8.19 31.4955 -8.778 31.4955 -9.786L 31.4955 -14.308L 29.9835 -14.308L 29.9835 -9.912C 29.9835 -8.316 30.6415 -6.818 32.5315 -6.818ZM 42.6306 -9.254C 42.6306 -7.784 43.8486 -6.818 45.3886 -6.818C 46.2986 -6.818 46.8866 -7.126 47.2646 -7.546L 47.3906 -7L 48.7206 -7L 48.7206 -11.718C 48.7206 -13.314 47.9786 -14.49 45.8086 -14.49C 44.5906 -14.49 43.6106 -14.028 43.0226 -13.65L 43.6106 -12.586C 44.1426 -12.88 44.8426 -13.16 45.6546 -13.16C 46.6206 -13.16 47.2086 -12.656 47.2086 -11.816L 47.2086 -11.13C 46.9286 -11.382 46.2986 -11.662 45.4586 -11.662C 43.7786 -11.662 42.6306 -10.668 42.6306 -9.254ZM 44.1566 -9.296C 44.1566 -10.024 44.7726 -10.556 45.6966 -10.556C 46.6206 -10.556 47.2506 -10.066 47.2506 -9.296C 47.2506 -8.54 46.6066 -8.036 45.7106 -8.036C 44.7866 -8.036 44.1566 -8.568 44.1566 -9.296ZM 50.3247 -7L 51.8507 -7L 51.8507 -17.122L 50.3247 -17.122L 50.3247 -7ZM 57.1489 -14.49C 56.1129 -14.49 55.3429 -13.888 55.0629 -13.16L 55.0629 -14.308L 53.5649 -14.308L 53.5649 -7L 55.0909 -7L 55.0909 -10.15C 55.0909 -11.732 55.5529 -12.95 57.1489 -12.95L 57.1489 -14.49ZM 57.5743 -10.626C 57.5743 -8.414 59.0863 -6.818 61.3683 -6.818C 63.1043 -6.818 64.0703 -7.812 64.4203 -8.414L 63.4123 -9.17C 63.1323 -8.764 62.5023 -8.148 61.3963 -8.148C 60.0943 -8.148 59.1563 -8.988 59.1283 -10.29L 64.6303 -10.29C 64.6443 -10.416 64.6443 -10.542 64.6443 -10.668C 64.6443 -12.964 63.3423 -14.49 61.1303 -14.49C 59.1283 -14.49 57.5743 -12.894 57.5743 -10.626ZM 59.1843 -11.34C 59.2823 -12.488 60.0943 -13.216 61.1443 -13.216C 62.1943 -13.216 63.0343 -12.544 63.0903 -11.34L 59.1843 -11.34ZM 65.4216 -9.254C 65.4216 -7.784 66.6396 -6.818 68.1796 -6.818C 69.0896 -6.818 69.6776 -7.126 70.0556 -7.546L 70.1816 -7L 71.5116 -7L 71.5116 -11.718C 71.5116 -13.314 70.7696 -14.49 68.5996 -14.49C 67.3816 -14.49 66.4016 -14.028 65.8136 -13.65L 66.4016 -12.586C 66.9336 -12.88 67.6336 -13.16 68.4456 -13.16C 69.4116 -13.16 69.9996 -12.656 69.9996 -11.816L 69.9996 -11.13C 69.7196 -11.382 69.0896 -11.662 68.2496 -11.662C 66.5696 -11.662 65.4216 -10.668 65.4216 -9.254ZM 66.9476 -9.296C 66.9476 -10.024 67.5636 -10.556 68.4876 -10.556C 69.4116 -10.556 70.0416 -10.066 70.0416 -9.296C 70.0416 -8.54 69.3976 -8.036 68.5016 -8.036C 67.5776 -8.036 66.9476 -8.568 66.9476 -9.296ZM 80.0317 -17.122L 78.5057 -17.122L 78.5057 -13.328C 78.3097 -13.65 77.5257 -14.49 76.1397 -14.49C 74.0537 -14.49 72.6677 -12.894 72.6677 -10.64C 72.6677 -8.4 74.1517 -6.818 76.2377 -6.818C 77.6517 -6.818 78.3937 -7.7 78.5897 -7.952L 78.5897 -7L 80.0317 -7L 80.0317 -17.122ZM 78.5617 -10.626C 78.5617 -9.282 77.7357 -8.162 76.3917 -8.162C 75.1457 -8.162 74.2077 -9.128 74.2077 -10.626C 74.2077 -12.096 75.1037 -13.132 76.3777 -13.132C 77.5957 -13.132 78.5617 -12.222 78.5617 -10.626ZM 84.3047 -4.494L 88.1267 -14.308L 86.5307 -14.308L 84.5847 -8.988L 82.6107 -14.308L 80.9727 -14.308L 83.8707 -7.126L 82.8347 -4.494L 84.3047 -4.494ZM 97.9963 -14.49C 97.0163 -14.49 96.2743 -13.93 95.9523 -13.356L 95.9523 -17.122L 94.4263 -17.122L 94.4263 -7L 95.9523 -7L 95.9523 -11.41C 95.9523 -12.404 96.5963 -13.118 97.5623 -13.118C 98.4023 -13.118 99.0323 -12.53 99.0323 -11.522L 99.0323 -7L 100.544 -7L 100.544 -11.396C 100.544 -12.992 99.8863 -14.49 97.9963 -14.49ZM 101.744 -9.254C 101.744 -7.784 102.962 -6.818 104.502 -6.818C 105.412 -6.818 106 -7.126 106.378 -7.546L 106.504 -7L 107.834 -7L 107.834 -11.718C 107.834 -13.314 107.092 -14.49 104.922 -14.49C 103.704 -14.49 102.724 -14.028 102.136 -13.65L 102.724 -12.586C 103.256 -12.88 103.956 -13.16 104.768 -13.16C 105.734 -13.16 106.322 -12.656 106.322 -11.816L 106.322 -11.13C 106.042 -11.382 105.412 -11.662 104.572 -11.662C 102.892 -11.662 101.744 -10.668 101.744 -9.254ZM 103.27 -9.296C 103.27 -10.024 103.886 -10.556 104.81 -10.556C 105.734 -10.556 106.364 -10.066 106.364 -9.296C 106.364 -8.54 105.72 -8.036 104.824 -8.036C 103.9 -8.036 103.27 -8.568 103.27 -9.296ZM 113.092 -7L 115.78 -14.308L 114.184 -14.308L 112.238 -8.652L 110.278 -14.308L 108.654 -14.308L 111.37 -7L 113.092 -7ZM 116.277 -10.626C 116.277 -8.414 117.789 -6.818 120.071 -6.818C 121.807 -6.818 122.773 -7.812 123.123 -8.414L 122.115 -9.17C 121.835 -8.764 121.205 -8.148 120.099 -8.148C 118.797 -8.148 117.859 -8.988 117.831 -10.29L 123.333 -10.29C 123.347 -10.416 123.347 -10.542 123.347 -10.668C 123.347 -12.964 122.045 -14.49 119.833 -14.49C 117.831 -14.49 116.277 -12.894 116.277 -10.626ZM 117.887 -11.34C 117.985 -12.488 118.797 -13.216 119.847 -13.216C 120.897 -13.216 121.737 -12.544 121.793 -11.34L 117.887 -11.34ZM 129.467 -9.254C 129.467 -7.784 130.685 -6.818 132.225 -6.818C 133.135 -6.818 133.723 -7.126 134.101 -7.546L 134.227 -7L 135.557 -7L 135.557 -11.718C 135.557 -13.314 134.815 -14.49 132.645 -14.49C 131.427 -14.49 130.447 -14.028 129.859 -13.65L 130.447 -12.586C 130.979 -12.88 131.679 -13.16 132.491 -13.16C 133.457 -13.16 134.045 -12.656 134.045 -11.816L 134.045 -11.13C 133.765 -11.382 133.135 -11.662 132.295 -11.662C 130.615 -11.662 129.467 -10.668 129.467 -9.254ZM 130.993 -9.296C 130.993 -10.024 131.609 -10.556 132.533 -10.556C 133.457 -10.556 134.087 -10.066 134.087 -9.296C 134.087 -8.54 133.443 -8.036 132.547 -8.036C 131.623 -8.036 130.993 -8.568 130.993 -9.296ZM 149.796 -9.198C 149.404 -8.904 148.494 -8.274 147.22 -8.274C 145.12 -8.274 143.748 -9.87 143.748 -11.9C 143.748 -13.93 145.162 -15.526 147.206 -15.526C 148.354 -15.526 149.25 -14.98 149.67 -14.658L 150.132 -16.03C 149.558 -16.464 148.55 -16.982 147.164 -16.982C 144.294 -16.982 142.138 -14.784 142.138 -11.9C 142.138 -9.016 144.21 -6.818 147.178 -6.818C 148.69 -6.818 149.768 -7.462 150.258 -7.84L 149.796 -9.198ZM 152.659 -10.64C 152.659 -12.068 153.611 -13.132 154.983 -13.132C 156.341 -13.132 157.335 -12.082 157.335 -10.654C 157.335 -9.226 156.341 -8.176 154.983 -8.176C 153.625 -8.176 152.659 -9.198 152.659 -10.64ZM 151.119 -10.64C 151.119 -8.428 152.743 -6.818 154.983 -6.818C 157.209 -6.818 158.861 -8.456 158.861 -10.654C 158.861 -12.852 157.237 -14.49 154.983 -14.49C 152.785 -14.49 151.119 -12.852 151.119 -10.64ZM 160.125 -7L 161.651 -7L 161.651 -17.122L 160.125 -17.122L 160.125 -7ZM 163.366 -7L 164.892 -7L 164.892 -17.122L 163.366 -17.122L 163.366 -7ZM 166.172 -10.626C 166.172 -8.414 167.684 -6.818 169.966 -6.818C 171.702 -6.818 172.668 -7.812 173.018 -8.414L 172.01 -9.17C 171.73 -8.764 171.1 -8.148 169.994 -8.148C 168.692 -8.148 167.754 -8.988 167.726 -10.29L 173.228 -10.29C 173.242 -10.416 173.242 -10.542 173.242 -10.668C 173.242 -12.964 171.94 -14.49 169.728 -14.49C 167.726 -14.49 166.172 -12.894 166.172 -10.626ZM 167.782 -11.34C 167.88 -12.488 168.692 -13.216 169.742 -13.216C 170.792 -13.216 171.632 -12.544 171.688 -11.34L 167.782 -11.34ZM 174.929 -5.012C 175.573 -4.634 176.595 -4.312 177.575 -4.312C 179.703 -4.312 181.369 -5.222 181.369 -7.966L 181.369 -14.308L 179.927 -14.308L 179.927 -13.328C 179.703 -13.664 178.919 -14.49 177.547 -14.49C 175.475 -14.49 174.019 -12.894 174.019 -10.64C 174.019 -8.4 175.419 -6.818 177.519 -6.818C 178.961 -6.818 179.689 -7.714 179.857 -7.952L 179.857 -7.462C 179.857 -6.076 178.779 -5.628 177.561 -5.628C 176.539 -5.628 175.685 -6.034 175.419 -6.188L 174.929 -5.012ZM 179.899 -10.654C 179.899 -9.212 179.045 -8.176 177.729 -8.176C 176.483 -8.176 175.545 -9.156 175.545 -10.654C 175.545 -12.124 176.455 -13.132 177.715 -13.132C 178.975 -13.132 179.899 -12.152 179.899 -10.654ZM 182.592 -10.626C 182.592 -8.414 184.104 -6.818 186.386 -6.818C 188.122 -6.818 189.088 -7.812 189.438 -8.414L 188.43 -9.17C 188.15 -8.764 187.52 -8.148 186.414 -8.148C 185.112 -8.148 184.174 -8.988 184.146 -10.29L 189.648 -10.29C 189.662 -10.416 189.662 -10.542 189.662 -10.668C 189.662 -12.964 188.36 -14.49 186.148 -14.49C 184.146 -14.49 182.592 -12.894 182.592 -10.626ZM 184.202 -11.34C 184.3 -12.488 185.112 -13.216 186.162 -13.216C 187.212 -13.216 188.052 -12.544 188.108 -11.34L 184.202 -11.34ZM 191.055 -7L 194.177 -7C 195.927 -7 197.355 -8.134 197.355 -9.884C 197.355 -10.934 196.767 -11.732 195.801 -12.138C 196.543 -12.544 197.033 -13.314 197.033 -14.252C 197.033 -15.764 195.843 -16.8 193.939 -16.8L 191.055 -16.8L 191.055 -7ZM 192.609 -12.698L 192.609 -15.442L 193.981 -15.442C 194.877 -15.442 195.437 -14.924 195.437 -14.098C 195.437 -13.258 194.835 -12.698 193.995 -12.698L 192.609 -12.698ZM 192.609 -8.344L 192.609 -11.424L 194.023 -11.424C 194.989 -11.424 195.745 -10.934 195.745 -9.884C 195.745 -8.862 195.003 -8.344 194.023 -8.344L 192.609 -8.344ZM 198.246 -9.254C 198.246 -7.784 199.464 -6.818 201.004 -6.818C 201.914 -6.818 202.502 -7.126 202.88 -7.546L 203.006 -7L 204.336 -7L 204.336 -11.718C 204.336 -13.314 203.594 -14.49 201.424 -14.49C 200.206 -14.49 199.226 -14.028 198.638 -13.65L 199.226 -12.586C 199.758 -12.88 200.458 -13.16 201.27 -13.16C 202.236 -13.16 202.824 -12.656 202.824 -11.816L 202.824 -11.13C 202.544 -11.382 201.914 -11.662 201.074 -11.662C 199.394 -11.662 198.246 -10.668 198.246 -9.254ZM 199.772 -9.296C 199.772 -10.024 200.388 -10.556 201.312 -10.556C 202.236 -10.556 202.866 -10.066 202.866 -9.296C 202.866 -8.54 202.222 -8.036 201.326 -8.036C 200.402 -8.036 199.772 -8.568 199.772 -9.296ZM 211.736 -13.594C 211.316 -13.958 210.504 -14.49 209.3 -14.49C 207.13 -14.49 205.492 -12.838 205.492 -10.654C 205.492 -8.456 207.088 -6.818 209.314 -6.818C 210.532 -6.818 211.372 -7.406 211.736 -7.728L 211.302 -8.988C 210.994 -8.708 210.336 -8.176 209.398 -8.176C 208.04 -8.176 207.032 -9.254 207.032 -10.654C 207.032 -12.04 207.956 -13.104 209.342 -13.104C 210.266 -13.104 210.938 -12.628 211.274 -12.306L 211.736 -13.594ZM 212.954 -7L 214.48 -7L 214.48 -10.836L 217.308 -7L 219.114 -7L 215.992 -11.004L 218.918 -14.308L 217.182 -14.308L 214.48 -11.186L 214.48 -17.122L 212.954 -17.122L 212.954 -7ZM 219.588 -10.626C 219.588 -8.414 221.1 -6.818 223.382 -6.818C 225.118 -6.818 226.084 -7.812 226.434 -8.414L 225.426 -9.17C 225.146 -8.764 224.516 -8.148 223.41 -8.148C 222.108 -8.148 221.17 -8.988 221.142 -10.29L 226.644 -10.29C 226.658 -10.416 226.658 -10.542 226.658 -10.668C 226.658 -12.964 225.356 -14.49 223.144 -14.49C 221.142 -14.49 219.588 -12.894 219.588 -10.626ZM 221.198 -11.34C 221.296 -12.488 222.108 -13.216 223.158 -13.216C 224.208 -13.216 225.048 -12.544 225.104 -11.34L 221.198 -11.34ZM 231.467 -14.49C 230.431 -14.49 229.661 -13.888 229.381 -13.16L 229.381 -14.308L 227.883 -14.308L 227.883 -7L 229.409 -7L 229.409 -10.15C 229.409 -11.732 229.871 -12.95 231.467 -12.95L 231.467 -14.49ZM 237.494 -9.254C 237.494 -7.784 238.712 -6.818 240.252 -6.818C 241.162 -6.818 241.75 -7.126 242.128 -7.546L 242.254 -7L 243.584 -7L 243.584 -11.718C 243.584 -13.314 242.842 -14.49 240.672 -14.49C 239.454 -14.49 238.474 -14.028 237.886 -13.65L 238.474 -12.586C 239.006 -12.88 239.706 -13.16 240.518 -13.16C 241.484 -13.16 242.072 -12.656 242.072 -11.816L 242.072 -11.13C 241.792 -11.382 241.162 -11.662 240.322 -11.662C 238.642 -11.662 237.494 -10.668 237.494 -9.254ZM 239.02 -9.296C 239.02 -10.024 239.636 -10.556 240.56 -10.556C 241.484 -10.556 242.114 -10.066 242.114 -9.296C 242.114 -8.54 241.47 -8.036 240.574 -8.036C 239.65 -8.036 239.02 -8.568 239.02 -9.296ZM 250.984 -13.594C 250.564 -13.958 249.752 -14.49 248.548 -14.49C 246.378 -14.49 244.74 -12.838 244.74 -10.654C 244.74 -8.456 246.336 -6.818 248.562 -6.818C 249.78 -6.818 250.62 -7.406 250.984 -7.728L 250.55 -8.988C 250.242 -8.708 249.584 -8.176 248.646 -8.176C 247.288 -8.176 246.28 -9.254 246.28 -10.654C 246.28 -12.04 247.204 -13.104 248.59 -13.104C 249.514 -13.104 250.186 -12.628 250.522 -12.306L 250.984 -13.594ZM 257.998 -13.594C 257.578 -13.958 256.766 -14.49 255.562 -14.49C 253.392 -14.49 251.754 -12.838 251.754 -10.654C 251.754 -8.456 253.35 -6.818 255.576 -6.818C 256.794 -6.818 257.634 -7.406 257.998 -7.728L 257.564 -8.988C 257.256 -8.708 256.598 -8.176 255.66 -8.176C 254.302 -8.176 253.294 -9.254 253.294 -10.654C 253.294 -12.04 254.218 -13.104 255.604 -13.104C 256.528 -13.104 257.2 -12.628 257.536 -12.306L 257.998 -13.594ZM 260.307 -10.64C 260.307 -12.068 261.259 -13.132 262.631 -13.132C 263.989 -13.132 264.983 -12.082 264.983 -10.654C 264.983 -9.226 263.989 -8.176 262.631 -8.176C 261.273 -8.176 260.307 -9.198 260.307 -10.64ZM 258.767 -10.64C 258.767 -8.428 260.391 -6.818 262.631 -6.818C 264.857 -6.818 266.509 -8.456 266.509 -10.654C 266.509 -12.852 264.885 -14.49 262.631 -14.49C 260.433 -14.49 258.767 -12.852 258.767 -10.64ZM 270.266 -6.818C 271.246 -6.818 272.002 -7.364 272.324 -7.952L 272.324 -7L 273.822 -7L 273.822 -14.308L 272.296 -14.308L 272.296 -9.898C 272.296 -8.89 271.666 -8.19 270.7 -8.19C 269.86 -8.19 269.23 -8.778 269.23 -9.786L 269.23 -14.308L 267.718 -14.308L 267.718 -9.912C 267.718 -8.316 268.376 -6.818 270.266 -6.818ZM 279.027 -14.49C 278.047 -14.49 277.291 -13.93 276.969 -13.356L 276.969 -14.308L 275.471 -14.308L 275.471 -7L 276.997 -7L 276.997 -11.41C 276.997 -12.404 277.627 -13.118 278.593 -13.118C 279.433 -13.118 280.063 -12.53 280.063 -11.522L 280.063 -7L 281.575 -7L 281.575 -11.396C 281.575 -12.992 280.917 -14.49 279.027 -14.49ZM 283.349 -14.308L 282.537 -14.308L 282.537 -13.048L 283.349 -13.048L 283.349 -9.884C 283.349 -8.092 283.881 -6.902 285.659 -6.902C 286.135 -6.902 286.401 -6.958 286.401 -6.958L 286.401 -8.274C 286.401 -8.274 286.233 -8.26 286.107 -8.26C 285.295 -8.26 284.861 -8.512 284.861 -9.646L 284.861 -13.048L 286.345 -13.048L 286.345 -14.308L 284.861 -14.308L 284.861 -15.834L 283.349 -15.834L 283.349 -14.308ZM 287.373 -7.798C 287.373 -7.364 287.681 -6.93 288.199 -6.832C 288.129 -6.384 287.695 -5.95 287.415 -5.754L 288.059 -5.082C 288.815 -5.684 289.375 -6.594 289.375 -7.728C 289.375 -8.4 288.913 -8.792 288.353 -8.792C 287.807 -8.792 287.373 -8.344 287.373 -7.798ZM 295.705 -9.254C 295.705 -7.784 296.923 -6.818 298.463 -6.818C 299.373 -6.818 299.961 -7.126 300.339 -7.546L 300.465 -7L 301.795 -7L 301.795 -11.718C 301.795 -13.314 301.053 -14.49 298.883 -14.49C 297.665 -14.49 296.685 -14.028 296.097 -13.65L 296.685 -12.586C 297.217 -12.88 297.917 -13.16 298.729 -13.16C 299.695 -13.16 300.283 -12.656 300.283 -11.816L 300.283 -11.13C 300.003 -11.382 299.373 -11.662 298.533 -11.662C 296.853 -11.662 295.705 -10.668 295.705 -9.254ZM 297.231 -9.296C 297.231 -10.024 297.847 -10.556 298.771 -10.556C 299.695 -10.556 300.325 -10.066 300.325 -9.296C 300.325 -8.54 299.681 -8.036 298.785 -8.036C 297.861 -8.036 297.231 -8.568 297.231 -9.296ZM 306.955 -14.49C 305.975 -14.49 305.219 -13.93 304.897 -13.356L 304.897 -14.308L 303.399 -14.308L 303.399 -7L 304.925 -7L 304.925 -11.41C 304.925 -12.404 305.555 -13.118 306.521 -13.118C 307.361 -13.118 307.991 -12.53 307.991 -11.522L 307.991 -7L 309.503 -7L 309.503 -11.396C 309.503 -12.992 308.845 -14.49 306.955 -14.49ZM 316.059 -10.626C 316.059 -8.414 317.571 -6.818 319.853 -6.818C 321.589 -6.818 322.555 -7.812 322.905 -8.414L 321.897 -9.17C 321.617 -8.764 320.987 -8.148 319.881 -8.148C 318.579 -8.148 317.641 -8.988 317.613 -10.29L 323.115 -10.29C 323.129 -10.416 323.129 -10.542 323.129 -10.668C 323.129 -12.964 321.827 -14.49 319.615 -14.49C 317.613 -14.49 316.059 -12.894 316.059 -10.626ZM 317.669 -11.34C 317.767 -12.488 318.579 -13.216 319.629 -13.216C 320.679 -13.216 321.519 -12.544 321.575 -11.34L 317.669 -11.34ZM 328.96 -7L 330.64 -7L 327.994 -10.752L 330.486 -14.308L 328.75 -14.308L 327.126 -11.83L 325.502 -14.308L 323.766 -14.308L 326.258 -10.752L 323.612 -7L 325.292 -7L 327.126 -9.618L 328.96 -7ZM 331.6 -7L 333.126 -7L 333.126 -14.308L 331.6 -14.308L 331.6 -7ZM 331.404 -16.114C 331.404 -15.582 331.824 -15.162 332.356 -15.162C 332.888 -15.162 333.308 -15.582 333.308 -16.114C 333.308 -16.646 332.888 -17.066 332.356 -17.066C 331.824 -17.066 331.404 -16.646 331.404 -16.114ZM 334.322 -8.274C 334.686 -7.616 335.47 -6.818 336.954 -6.818C 338.452 -6.818 339.6 -7.7 339.6 -9.058C 339.6 -11.634 336.03 -11.046 336.03 -12.446C 336.03 -12.95 336.45 -13.244 337.01 -13.244C 337.822 -13.244 338.214 -12.768 338.424 -12.432L 339.474 -13.132C 339.194 -13.692 338.466 -14.49 337.094 -14.49C 335.68 -14.49 334.588 -13.706 334.588 -12.418C 334.588 -9.884 338.144 -10.388 338.144 -8.988C 338.144 -8.4 337.668 -8.078 337.024 -8.078C 336.114 -8.078 335.61 -8.54 335.274 -9.03L 334.322 -8.274ZM 340.927 -14.308L 340.115 -14.308L 340.115 -13.048L 340.927 -13.048L 340.927 -9.884C 340.927 -8.092 341.459 -6.902 343.237 -6.902C 343.713 -6.902 343.979 -6.958 343.979 -6.958L 343.979 -8.274C 343.979 -8.274 343.811 -8.26 343.685 -8.26C 342.873 -8.26 342.439 -8.512 342.439 -9.646L 342.439 -13.048L 343.923 -13.048L 343.923 -14.308L 342.439 -14.308L 342.439 -15.834L 340.927 -15.834L 340.927 -14.308ZM 345.204 -7L 346.73 -7L 346.73 -14.308L 345.204 -14.308L 345.204 -7ZM 345.008 -16.114C 345.008 -15.582 345.428 -15.162 345.96 -15.162C 346.492 -15.162 346.912 -15.582 346.912 -16.114C 346.912 -16.646 346.492 -17.066 345.96 -17.066C 345.428 -17.066 345.008 -16.646 345.008 -16.114ZM 352 -14.49C 351.02 -14.49 350.264 -13.93 349.942 -13.356L 349.942 -14.308L 348.444 -14.308L 348.444 -7L 349.97 -7L 349.97 -11.41C 349.97 -12.404 350.6 -13.118 351.566 -13.118C 352.406 -13.118 353.036 -12.53 353.036 -11.522L 353.036 -7L 354.548 -7L 354.548 -11.396C 354.548 -12.992 353.89 -14.49 352 -14.49ZM 356.658 -5.012C 357.302 -4.634 358.324 -4.312 359.304 -4.312C 361.432 -4.312 363.098 -5.222 363.098 -7.966L 363.098 -14.308L 361.656 -14.308L 361.656 -13.328C 361.432 -13.664 360.648 -14.49 359.276 -14.49C 357.204 -14.49 355.748 -12.894 355.748 -10.64C 355.748 -8.4 357.148 -6.818 359.248 -6.818C 360.69 -6.818 361.418 -7.714 361.586 -7.952L 361.586 -7.462C 361.586 -6.076 360.508 -5.628 359.29 -5.628C 358.268 -5.628 357.414 -6.034 357.148 -6.188L 356.658 -5.012ZM 361.628 -10.654C 361.628 -9.212 360.774 -8.176 359.458 -8.176C 358.212 -8.176 357.274 -9.156 357.274 -10.654C 357.274 -12.124 358.184 -13.132 359.444 -13.132C 360.704 -13.132 361.628 -12.152 361.628 -10.654ZM 372.91 -8.246C 371.888 -8.246 371.314 -8.806 371.104 -9.534L 369.76 -9.1C 370.04 -8.092 370.978 -6.818 372.98 -6.818C 374.87 -6.818 376.172 -8.274 376.172 -10.22C 376.172 -12.068 374.842 -13.314 373.106 -13.314C 372.504 -13.314 372.028 -13.174 371.594 -12.908L 371.706 -15.414L 375.584 -15.414L 375.584 -16.8L 370.32 -16.8L 370.11 -11.62L 371.398 -11.41C 371.692 -11.676 372.126 -11.984 372.798 -11.984C 373.988 -11.984 374.604 -11.102 374.604 -10.122C 374.604 -9.058 373.946 -8.246 372.91 -8.246ZM 377.295 -7L 383.497 -7L 383.497 -8.372L 379.115 -8.372C 379.353 -9.926 383.371 -11.354 383.371 -14.126C 383.371 -15.806 382.195 -16.982 380.319 -16.982C 378.289 -16.982 377.491 -15.498 377.295 -14.602L 378.653 -14.21C 378.849 -14.924 379.311 -15.54 380.263 -15.54C 381.229 -15.54 381.789 -14.938 381.789 -14.07C 381.789 -11.914 377.295 -10.332 377.295 -7.56L 377.295 -7ZM 387.856 -15.526C 389.424 -15.526 389.621 -14.238 389.621 -12.824C 389.243 -12.194 388.64 -11.76 387.885 -11.76C 386.792 -11.76 386.233 -12.558 386.233 -13.608C 386.233 -14.84 386.863 -15.526 387.856 -15.526ZM 387.381 -6.818C 390.251 -6.818 391.189 -9.324 391.189 -12.6C 391.189 -15.05 390.475 -16.982 387.885 -16.982C 385.939 -16.982 384.693 -15.638 384.693 -13.566C 384.693 -11.62 385.812 -10.36 387.591 -10.36C 388.612 -10.36 389.228 -10.822 389.55 -11.228C 389.55 -9.968 389.117 -8.274 387.297 -8.274C 386.555 -8.274 386.078 -8.512 385.771 -8.722L 385.126 -7.49C 385.546 -7.21 386.302 -6.818 387.381 -6.818ZM 392.416 -7.798C 392.416 -7.364 392.724 -6.93 393.242 -6.832C 393.172 -6.384 392.738 -5.95 392.458 -5.754L 393.102 -5.082C 393.858 -5.684 394.418 -6.594 394.418 -7.728C 394.418 -8.4 393.956 -8.792 393.396 -8.792C 392.85 -8.792 392.416 -8.344 392.416 -7.798ZM 1.946 12.36C 1.946 10.932 2.898 9.868 4.27 9.868C 5.628 9.868 6.622 10.918 6.622 12.346C 6.622 13.774 5.628 14.824 4.27 14.824C 2.912 14.824 1.946 13.802 1.946 12.36ZM 0.406 12.36C 0.406 14.572 2.03 16.182 4.27 16.182C 6.496 16.182 8.148 14.544 8.148 12.346C 8.148 10.148 6.524 8.51 4.27 8.51C 2.072 8.51 0.406 10.148 0.406 12.36ZM 12.9966 8.51C 11.9606 8.51 11.1906 9.112 10.9106 9.84L 10.9106 8.692L 9.41259 8.692L 9.41259 16L 10.9386 16L 10.9386 12.85C 10.9386 11.268 11.4006 10.05 12.9966 10.05L 12.9966 8.51ZM 18.7667 13.746C 18.7667 15.216 19.9847 16.182 21.5247 16.182C 22.4347 16.182 23.0227 15.874 23.4007 15.454L 23.5267 16L 24.8567 16L 24.8567 11.282C 24.8567 9.686 24.1147 8.51 21.9447 8.51C 20.7267 8.51 19.7467 8.972 19.1587 9.35L 19.7467 10.414C 20.2787 10.12 20.9787 9.84 21.7907 9.84C 22.7567 9.84 23.3447 10.344 23.3447 11.184L 23.3447 11.87C 23.0647 11.618 22.4347 11.338 21.5947 11.338C 19.9147 11.338 18.7667 12.332 18.7667 13.746ZM 20.2927 13.704C 20.2927 12.976 20.9087 12.444 21.8327 12.444C 22.7567 12.444 23.3867 12.934 23.3867 13.704C 23.3867 14.46 22.7427 14.964 21.8467 14.964C 20.9227 14.964 20.2927 14.432 20.2927 13.704ZM 30.0448 8.51C 29.0088 8.51 28.2388 9.112 27.9588 9.84L 27.9588 8.692L 26.4608 8.692L 26.4608 16L 27.9868 16L 27.9868 12.85C 27.9868 11.268 28.4488 10.05 30.0448 10.05L 30.0448 8.51ZM 30.4701 12.374C 30.4701 14.586 31.9821 16.182 34.2641 16.182C 36.0001 16.182 36.9661 15.188 37.3161 14.586L 36.3081 13.83C 36.0281 14.236 35.3981 14.852 34.2921 14.852C 32.9901 14.852 32.0521 14.012 32.0241 12.71L 37.5261 12.71C 37.5401 12.584 37.5401 12.458 37.5401 12.332C 37.5401 10.036 36.2381 8.51 34.0261 8.51C 32.0241 8.51 30.4701 10.106 30.4701 12.374ZM 32.0801 11.66C 32.1781 10.512 32.9901 9.784 34.0401 9.784C 35.0901 9.784 35.9301 10.456 35.9861 11.66L 32.0801 11.66ZM 43.3327 14.726C 43.6967 15.384 44.4807 16.182 45.9647 16.182C 47.4627 16.182 48.6107 15.3 48.6107 13.942C 48.6107 11.366 45.0407 11.954 45.0407 10.554C 45.0407 10.05 45.4607 9.756 46.0207 9.756C 46.8327 9.756 47.2247 10.232 47.4347 10.568L 48.4847 9.868C 48.2047 9.308 47.4767 8.51 46.1047 8.51C 44.6907 8.51 43.5987 9.294 43.5987 10.582C 43.5987 13.116 47.1547 12.612 47.1547 14.012C 47.1547 14.6 46.6787 14.922 46.0347 14.922C 45.1247 14.922 44.6207 14.46 44.2847 13.97L 43.3327 14.726ZM 49.8117 16L 51.3377 16L 51.3377 8.692L 49.8117 8.692L 49.8117 16ZM 49.6157 6.886C 49.6157 7.418 50.0357 7.838 50.5677 7.838C 51.0997 7.838 51.5197 7.418 51.5197 6.886C 51.5197 6.354 51.0997 5.934 50.5677 5.934C 50.0357 5.934 49.6157 6.354 49.6157 6.886ZM 63.3699 11.226C 63.3699 9.644 62.5299 8.51 60.8779 8.51C 59.8699 8.51 59.0579 8.958 58.6239 9.728C 58.2739 8.986 57.5459 8.51 56.5239 8.51C 55.5299 8.51 54.8159 9.084 54.5499 9.644C 54.5499 9.644 54.5499 9.308 54.5499 8.692L 53.0519 8.692L 53.0519 16L 54.5779 16L 54.5779 11.604C 54.5779 10.554 55.2219 9.882 56.0479 9.882C 56.9159 9.882 57.4479 10.484 57.4479 11.478L 57.4479 16L 58.9739 16L 58.9739 11.632C 58.9739 10.512 59.6039 9.882 60.4579 9.882C 61.3679 9.882 61.8579 10.484 61.8579 11.618L 61.8579 16L 63.3699 16L 63.3699 11.226ZM 65.0285 18.618L 66.5545 18.618L 66.5545 15.034C 66.7505 15.342 67.5345 16.182 68.9205 16.182C 71.0065 16.182 72.3925 14.6 72.3925 12.332C 72.3925 10.106 70.9085 8.51 68.8225 8.51C 67.4085 8.51 66.6665 9.392 66.4705 9.658L 66.4705 8.692L 65.0285 8.692L 65.0285 18.618ZM 66.4985 12.332C 66.4985 10.988 67.3245 9.868 68.6685 9.868C 69.9145 9.868 70.8525 10.834 70.8525 12.332C 70.8525 13.802 69.9565 14.824 68.6825 14.824C 67.4645 14.824 66.4985 13.914 66.4985 12.332ZM 73.6691 16L 75.1951 16L 75.1951 5.878L 73.6691 5.878L 73.6691 16ZM 79.4713 18.506L 83.2933 8.692L 81.6973 8.692L 79.7513 14.012L 77.7773 8.692L 76.1393 8.692L 79.0373 15.874L 78.0013 18.506L 79.4713 18.506ZM 92.8924 8.51C 91.9124 8.51 91.1564 9.07 90.8344 9.644L 90.8344 8.692L 89.3364 8.692L 89.3364 16L 90.8624 16L 90.8624 11.59C 90.8624 10.596 91.4924 9.882 92.4584 9.882C 93.2984 9.882 93.9284 10.47 93.9284 11.478L 93.9284 16L 95.4404 16L 95.4404 11.604C 95.4404 10.008 94.7824 8.51 92.8924 8.51ZM 98.1804 12.36C 98.1804 10.932 99.1324 9.868 100.504 9.868C 101.862 9.868 102.856 10.918 102.856 12.346C 102.856 13.774 101.862 14.824 100.504 14.824C 99.1464 14.824 98.1804 13.802 98.1804 12.36ZM 96.6404 12.36C 96.6404 14.572 98.2644 16.182 100.504 16.182C 102.73 16.182 104.382 14.544 104.382 12.346C 104.382 10.148 102.758 8.51 100.504 8.51C 98.3064 8.51 96.6404 10.148 96.6404 12.36ZM 105.773 8.692L 104.961 8.692L 104.961 9.952L 105.773 9.952L 105.773 13.116C 105.773 14.908 106.305 16.098 108.083 16.098C 108.559 16.098 108.825 16.042 108.825 16.042L 108.825 14.726C 108.825 14.726 108.657 14.74 108.531 14.74C 107.719 14.74 107.285 14.488 107.285 13.354L 107.285 9.952L 108.769 9.952L 108.769 8.692L 107.285 8.692L 107.285 7.166L 105.773 7.166L 105.773 8.692ZM 115.135 16L 116.661 16L 116.661 8.692L 115.135 8.692L 115.135 16ZM 114.939 6.886C 114.939 7.418 115.359 7.838 115.891 7.838C 116.423 7.838 116.843 7.418 116.843 6.886C 116.843 6.354 116.423 5.934 115.891 5.934C 115.359 5.934 114.939 6.354 114.939 6.886ZM 121.931 8.51C 120.951 8.51 120.195 9.07 119.873 9.644L 119.873 8.692L 118.375 8.692L 118.375 16L 119.901 16L 119.901 11.59C 119.901 10.596 120.531 9.882 121.497 9.882C 122.337 9.882 122.967 10.47 122.967 11.478L 122.967 16L 124.479 16L 124.479 11.604C 124.479 10.008 123.821 8.51 121.931 8.51ZM 126.253 8.692L 125.441 8.692L 125.441 9.952L 126.253 9.952L 126.253 13.116C 126.253 14.908 126.785 16.098 128.563 16.098C 129.039 16.098 129.305 16.042 129.305 16.042L 129.305 14.726C 129.305 14.726 129.137 14.74 129.011 14.74C 128.199 14.74 127.765 14.488 127.765 13.354L 127.765 9.952L 129.249 9.952L 129.249 8.692L 127.765 8.692L 127.765 7.166L 126.253 7.166L 126.253 8.692ZM 130.095 12.374C 130.095 14.586 131.607 16.182 133.889 16.182C 135.625 16.182 136.591 15.188 136.941 14.586L 135.933 13.83C 135.653 14.236 135.023 14.852 133.917 14.852C 132.615 14.852 131.677 14.012 131.649 12.71L 137.151 12.71C 137.165 12.584 137.165 12.458 137.165 12.332C 137.165 10.036 135.863 8.51 133.651 8.51C 131.649 8.51 130.095 10.106 130.095 12.374ZM 131.705 11.66C 131.803 10.512 132.615 9.784 133.665 9.784C 134.715 9.784 135.555 10.456 135.611 11.66L 131.705 11.66ZM 141.974 8.51C 140.938 8.51 140.168 9.112 139.888 9.84L 139.888 8.692L 138.39 8.692L 138.39 16L 139.916 16L 139.916 12.85C 139.916 11.268 140.378 10.05 141.974 10.05L 141.974 8.51ZM 142.4 12.374C 142.4 14.586 143.912 16.182 146.194 16.182C 147.93 16.182 148.896 15.188 149.246 14.586L 148.238 13.83C 147.958 14.236 147.328 14.852 146.222 14.852C 144.92 14.852 143.982 14.012 143.954 12.71L 149.456 12.71C 149.47 12.584 149.47 12.458 149.47 12.332C 149.47 10.036 148.168 8.51 145.956 8.51C 143.954 8.51 142.4 10.106 142.4 12.374ZM 144.01 11.66C 144.108 10.512 144.92 9.784 145.97 9.784C 147.02 9.784 147.86 10.456 147.916 11.66L 144.01 11.66ZM 150.177 14.726C 150.541 15.384 151.325 16.182 152.809 16.182C 154.307 16.182 155.455 15.3 155.455 13.942C 155.455 11.366 151.885 11.954 151.885 10.554C 151.885 10.05 152.305 9.756 152.865 9.756C 153.677 9.756 154.069 10.232 154.279 10.568L 155.329 9.868C 155.049 9.308 154.321 8.51 152.949 8.51C 151.535 8.51 150.443 9.294 150.443 10.582C 150.443 13.116 153.999 12.612 153.999 14.012C 153.999 14.6 153.523 14.922 152.879 14.922C 151.969 14.922 151.465 14.46 151.129 13.97L 150.177 14.726ZM 156.782 8.692L 155.97 8.692L 155.97 9.952L 156.782 9.952L 156.782 13.116C 156.782 14.908 157.314 16.098 159.092 16.098C 159.568 16.098 159.834 16.042 159.834 16.042L 159.834 14.726C 159.834 14.726 159.666 14.74 159.54 14.74C 158.728 14.74 158.294 14.488 158.294 13.354L 158.294 9.952L 159.778 9.952L 159.778 8.692L 158.294 8.692L 158.294 7.166L 156.782 7.166L 156.782 8.692ZM 160.624 12.374C 160.624 14.586 162.136 16.182 164.418 16.182C 166.154 16.182 167.12 15.188 167.47 14.586L 166.462 13.83C 166.182 14.236 165.552 14.852 164.446 14.852C 163.144 14.852 162.206 14.012 162.178 12.71L 167.68 12.71C 167.694 12.584 167.694 12.458 167.694 12.332C 167.694 10.036 166.392 8.51 164.18 8.51C 162.178 8.51 160.624 10.106 160.624 12.374ZM 162.234 11.66C 162.332 10.512 163.144 9.784 164.194 9.784C 165.244 9.784 166.084 10.456 166.14 11.66L 162.234 11.66ZM 175.836 5.878L 174.31 5.878L 174.31 9.672C 174.114 9.35 173.33 8.51 171.944 8.51C 169.858 8.51 168.472 10.106 168.472 12.36C 168.472 14.6 169.956 16.182 172.042 16.182C 173.456 16.182 174.198 15.3 174.394 15.048L 174.394 16L 175.836 16L 175.836 5.878ZM 174.366 12.374C 174.366 13.718 173.54 14.838 172.196 14.838C 170.95 14.838 170.012 13.872 170.012 12.374C 170.012 10.904 170.908 9.868 172.182 9.868C 173.4 9.868 174.366 10.778 174.366 12.374ZM 177.295 15.202C 177.295 15.636 177.603 16.07 178.121 16.168C 178.051 16.616 177.617 17.05 177.337 17.246L 177.981 17.918C 178.737 17.316 179.297 16.406 179.297 15.272C 179.297 14.6 178.835 14.208 178.275 14.208C 177.729 14.208 177.295 14.656 177.295 15.202ZM 188.38 18.506L 192.202 8.692L 190.606 8.692L 188.66 14.012L 186.686 8.692L 185.048 8.692L 187.946 15.874L 186.91 18.506L 188.38 18.506ZM 194.251 12.36C 194.251 10.932 195.203 9.868 196.575 9.868C 197.933 9.868 198.927 10.918 198.927 12.346C 198.927 13.774 197.933 14.824 196.575 14.824C 195.217 14.824 194.251 13.802 194.251 12.36ZM 192.711 12.36C 192.711 14.572 194.335 16.182 196.575 16.182C 198.801 16.182 200.453 14.544 200.453 12.346C 200.453 10.148 198.829 8.51 196.575 8.51C 194.377 8.51 192.711 10.148 192.711 12.36ZM 204.21 16.182C 205.19 16.182 205.946 15.636 206.268 15.048L 206.268 16L 207.766 16L 207.766 8.692L 206.24 8.692L 206.24 13.102C 206.24 14.11 205.61 14.81 204.644 14.81C 203.804 14.81 203.174 14.222 203.174 13.214L 203.174 8.692L 201.662 8.692L 201.662 13.088C 201.662 14.684 202.32 16.182 204.21 16.182ZM 220.296 9.406C 219.876 9.042 219.064 8.51 217.86 8.51C 215.69 8.51 214.052 10.162 214.052 12.346C 214.052 14.544 215.648 16.182 217.874 16.182C 219.092 16.182 219.932 15.594 220.296 15.272L 219.862 14.012C 219.554 14.292 218.896 14.824 217.958 14.824C 216.6 14.824 215.592 13.746 215.592 12.346C 215.592 10.96 216.516 9.896 217.902 9.896C 218.826 9.896 219.498 10.372 219.834 10.694L 220.296 9.406ZM 221.066 13.746C 221.066 15.216 222.284 16.182 223.824 16.182C 224.734 16.182 225.322 15.874 225.7 15.454L 225.826 16L 227.156 16L 227.156 11.282C 227.156 9.686 226.414 8.51 224.244 8.51C 223.026 8.51 222.046 8.972 221.458 9.35L 222.046 10.414C 222.578 10.12 223.278 9.84 224.09 9.84C 225.056 9.84 225.644 10.344 225.644 11.184L 225.644 11.87C 225.364 11.618 224.734 11.338 223.894 11.338C 222.214 11.338 221.066 12.332 221.066 13.746ZM 222.592 13.704C 222.592 12.976 223.208 12.444 224.132 12.444C 225.056 12.444 225.686 12.934 225.686 13.704C 225.686 14.46 225.042 14.964 224.146 14.964C 223.222 14.964 222.592 14.432 222.592 13.704ZM 232.316 8.51C 231.336 8.51 230.58 9.07 230.258 9.644L 230.258 8.692L 228.76 8.692L 228.76 16L 230.286 16L 230.286 11.59C 230.286 10.596 230.916 9.882 231.882 9.882C 232.722 9.882 233.352 10.47 233.352 11.478L 233.352 16L 234.864 16L 234.864 11.604C 234.864 10.008 234.206 8.51 232.316 8.51ZM 247.393 9.406C 246.973 9.042 246.161 8.51 244.957 8.51C 242.787 8.51 241.149 10.162 241.149 12.346C 241.149 14.544 242.745 16.182 244.971 16.182C 246.189 16.182 247.029 15.594 247.393 15.272L 246.959 14.012C 246.651 14.292 245.993 14.824 245.055 14.824C 243.697 14.824 242.689 13.746 242.689 12.346C 242.689 10.96 243.613 9.896 244.999 9.896C 245.923 9.896 246.595 10.372 246.931 10.694L 247.393 9.406ZM 252.181 8.51C 251.201 8.51 250.459 9.07 250.137 9.644L 250.137 5.878L 248.611 5.878L 248.611 16L 250.137 16L 250.137 11.59C 250.137 10.596 250.781 9.882 251.747 9.882C 252.587 9.882 253.217 10.47 253.217 11.478L 253.217 16L 254.729 16L 254.729 11.604C 254.729 10.008 254.071 8.51 252.181 8.51ZM 257.469 12.36C 257.469 10.932 258.421 9.868 259.793 9.868C 261.151 9.868 262.145 10.918 262.145 12.346C 262.145 13.774 261.151 14.824 259.793 14.824C 258.435 14.824 257.469 13.802 257.469 12.36ZM 255.929 12.36C 255.929 14.572 257.553 16.182 259.793 16.182C 262.019 16.182 263.671 14.544 263.671 12.346C 263.671 10.148 262.047 8.51 259.793 8.51C 257.595 8.51 255.929 10.148 255.929 12.36ZM 266.027 12.36C 266.027 10.932 266.979 9.868 268.351 9.868C 269.709 9.868 270.703 10.918 270.703 12.346C 270.703 13.774 269.709 14.824 268.351 14.824C 266.993 14.824 266.027 13.802 266.027 12.36ZM 264.487 12.36C 264.487 14.572 266.111 16.182 268.351 16.182C 270.577 16.182 272.229 14.544 272.229 12.346C 272.229 10.148 270.605 8.51 268.351 8.51C 266.153 8.51 264.487 10.148 264.487 12.36ZM 272.976 14.726C 273.34 15.384 274.124 16.182 275.608 16.182C 277.106 16.182 278.254 15.3 278.254 13.942C 278.254 11.366 274.684 11.954 274.684 10.554C 274.684 10.05 275.104 9.756 275.664 9.756C 276.476 9.756 276.868 10.232 277.078 10.568L 278.128 9.868C 277.848 9.308 277.12 8.51 275.748 8.51C 274.334 8.51 273.242 9.294 273.242 10.582C 273.242 13.116 276.798 12.612 276.798 14.012C 276.798 14.6 276.322 14.922 275.678 14.922C 274.768 14.922 274.264 14.46 273.928 13.97L 272.976 14.726ZM 279.021 12.374C 279.021 14.586 280.533 16.182 282.815 16.182C 284.551 16.182 285.517 15.188 285.867 14.586L 284.859 13.83C 284.579 14.236 283.949 14.852 282.843 14.852C 281.541 14.852 280.603 14.012 280.575 12.71L 286.077 12.71C 286.091 12.584 286.091 12.458 286.091 12.332C 286.091 10.036 284.789 8.51 282.577 8.51C 280.575 8.51 279.021 10.106 279.021 12.374ZM 280.631 11.66C 280.729 10.512 281.541 9.784 282.591 9.784C 283.641 9.784 284.481 10.456 284.537 11.66L 280.631 11.66ZM 292.528 8.692L 291.716 8.692L 291.716 9.952L 292.528 9.952L 292.528 13.116C 292.528 14.908 293.06 16.098 294.838 16.098C 295.314 16.098 295.58 16.042 295.58 16.042L 295.58 14.726C 295.58 14.726 295.412 14.74 295.286 14.74C 294.474 14.74 294.04 14.488 294.04 13.354L 294.04 9.952L 295.524 9.952L 295.524 8.692L 294.04 8.692L 294.04 7.166L 292.528 7.166L 292.528 8.692ZM 297.896 12.36C 297.896 10.932 298.848 9.868 300.22 9.868C 301.578 9.868 302.572 10.918 302.572 12.346C 302.572 13.774 301.578 14.824 300.22 14.824C 298.862 14.824 297.896 13.802 297.896 12.36ZM 296.356 12.36C 296.356 14.572 297.98 16.182 300.22 16.182C 302.446 16.182 304.098 14.544 304.098 12.346C 304.098 10.148 302.474 8.51 300.22 8.51C 298.022 8.51 296.356 10.148 296.356 12.36ZM 311.54 12.36C 311.54 10.932 312.492 9.868 313.864 9.868C 315.222 9.868 316.216 10.918 316.216 12.346C 316.216 13.774 315.222 14.824 313.864 14.824C 312.506 14.824 311.54 13.802 311.54 12.36ZM 310 12.36C 310 14.572 311.624 16.182 313.864 16.182C 316.09 16.182 317.742 14.544 317.742 12.346C 317.742 10.148 316.118 8.51 313.864 8.51C 311.666 8.51 310 10.148 310 12.36ZM 319.006 18.618L 320.532 18.618L 320.532 15.034C 320.728 15.342 321.512 16.182 322.898 16.182C 324.984 16.182 326.37 14.6 326.37 12.332C 326.37 10.106 324.886 8.51 322.8 8.51C 321.386 8.51 320.644 9.392 320.448 9.658L 320.448 8.692L 319.006 8.692L 319.006 18.618ZM 320.476 12.332C 320.476 10.988 321.302 9.868 322.646 9.868C 323.892 9.868 324.83 10.834 324.83 12.332C 324.83 13.802 323.934 14.824 322.66 14.824C 321.442 14.824 320.476 13.914 320.476 12.332ZM 327.773 8.692L 326.961 8.692L 326.961 9.952L 327.773 9.952L 327.773 13.116C 327.773 14.908 328.305 16.098 330.083 16.098C 330.559 16.098 330.825 16.042 330.825 16.042L 330.825 14.726C 330.825 14.726 330.657 14.74 330.531 14.74C 329.719 14.74 329.285 14.488 329.285 13.354L 329.285 9.952L 330.769 9.952L 330.769 8.692L 329.285 8.692L 329.285 7.166L 327.773 7.166L 327.773 8.692ZM 338.227 12.36C 338.227 10.932 339.179 9.868 340.551 9.868C 341.909 9.868 342.903 10.918 342.903 12.346C 342.903 13.774 341.909 14.824 340.551 14.824C 339.193 14.824 338.227 13.802 338.227 12.36ZM 336.687 12.36C 336.687 14.572 338.311 16.182 340.551 16.182C 342.777 16.182 344.429 14.544 344.429 12.346C 344.429 10.148 342.805 8.51 340.551 8.51C 338.353 8.51 336.687 10.148 336.687 12.36ZM 348.185 16.182C 349.165 16.182 349.921 15.636 350.243 15.048L 350.243 16L 351.741 16L 351.741 8.692L 350.215 8.692L 350.215 13.102C 350.215 14.11 349.585 14.81 348.619 14.81C 347.779 14.81 347.149 14.222 347.149 13.214L 347.149 8.692L 345.637 8.692L 345.637 13.088C 345.637 14.684 346.295 16.182 348.185 16.182ZM 353.516 8.692L 352.704 8.692L 352.704 9.952L 353.516 9.952L 353.516 13.116C 353.516 14.908 354.048 16.098 355.826 16.098C 356.302 16.098 356.568 16.042 356.568 16.042L 356.568 14.726C 356.568 14.726 356.4 14.74 356.274 14.74C 355.462 14.74 355.028 14.488 355.028 13.354L 355.028 9.952L 356.512 9.952L 356.512 8.692L 355.028 8.692L 355.028 7.166L 353.516 7.166L 353.516 8.692ZM 363.97 12.36C 363.97 10.932 364.922 9.868 366.294 9.868C 367.652 9.868 368.646 10.918 368.646 12.346C 368.646 13.774 367.652 14.824 366.294 14.824C 364.936 14.824 363.97 13.802 363.97 12.36ZM 362.43 12.36C 362.43 14.572 364.054 16.182 366.294 16.182C 368.52 16.182 370.172 14.544 370.172 12.346C 370.172 10.148 368.548 8.51 366.294 8.51C 364.096 8.51 362.43 10.148 362.43 12.36ZM 371.717 16L 373.243 16L 373.243 9.952L 374.657 9.952L 374.657 8.692L 373.243 8.692L 373.243 8.398C 373.243 7.572 373.649 7.194 374.391 7.194C 374.559 7.194 374.755 7.222 374.755 7.222L 374.755 5.92C 374.755 5.92 374.503 5.892 374.209 5.892C 372.907 5.892 371.717 6.508 371.717 8.37L 371.717 8.692L 370.919 8.692L 370.919 9.952L 371.717 9.952L 371.717 16ZM 380.408 13.746C 380.408 15.216 381.626 16.182 383.166 16.182C 384.076 16.182 384.664 15.874 385.042 15.454L 385.168 16L 386.498 16L 386.498 11.282C 386.498 9.686 385.756 8.51 383.586 8.51C 382.368 8.51 381.388 8.972 380.8 9.35L 381.388 10.414C 381.92 10.12 382.62 9.84 383.432 9.84C 384.398 9.84 384.986 10.344 384.986 11.184L 384.986 11.87C 384.706 11.618 384.076 11.338 383.236 11.338C 381.556 11.338 380.408 12.332 380.408 13.746ZM 381.934 13.704C 381.934 12.976 382.55 12.444 383.474 12.444C 384.398 12.444 385.028 12.934 385.028 13.704C 385.028 14.46 384.384 14.964 383.488 14.964C 382.564 14.964 381.934 14.432 381.934 13.704ZM 391.658 8.51C 390.678 8.51 389.922 9.07 389.6 9.644L 389.6 8.692L 388.102 8.692L 388.102 16L 389.628 16L 389.628 11.59C 389.628 10.596 390.258 9.882 391.224 9.882C 392.064 9.882 392.694 10.47 392.694 11.478L 392.694 16L 394.206 16L 394.206 11.604C 394.206 10.008 393.548 8.51 391.658 8.51ZM 0.406 35.746C 0.406 37.216 1.624 38.182 3.164 38.182C 4.074 38.182 4.662 37.874 5.04 37.454L 5.166 38L 6.496 38L 6.496 33.282C 6.496 31.686 5.754 30.51 3.584 30.51C 2.366 30.51 1.386 30.972 0.798 31.35L 1.386 32.414C 1.918 32.12 2.618 31.84 3.43 31.84C 4.396 31.84 4.984 32.344 4.984 33.184L 4.984 33.87C 4.704 33.618 4.074 33.338 3.234 33.338C 1.554 33.338 0.406 34.332 0.406 35.746ZM 1.932 35.704C 1.932 34.976 2.548 34.444 3.472 34.444C 4.396 34.444 5.026 34.934 5.026 35.704C 5.026 36.46 4.382 36.964 3.486 36.964C 2.562 36.964 1.932 36.432 1.932 35.704ZM 13.8961 31.406C 13.4761 31.042 12.6641 30.51 11.4601 30.51C 9.29009 30.51 7.65209 32.162 7.65209 34.346C 7.65209 36.544 9.24809 38.182 11.4741 38.182C 12.6921 38.182 13.5321 37.594 13.8961 37.272L 13.4621 36.012C 13.1541 36.292 12.4961 36.824 11.5581 36.824C 10.2001 36.824 9.19209 35.746 9.19209 34.346C 9.19209 32.96 10.1161 31.896 11.5021 31.896C 12.4261 31.896 13.0981 32.372 13.4341 32.694L 13.8961 31.406ZM 20.9098 31.406C 20.4898 31.042 19.6778 30.51 18.4738 30.51C 16.3038 30.51 14.6658 32.162 14.6658 34.346C 14.6658 36.544 16.2618 38.182 18.4878 38.182C 19.7058 38.182 20.5458 37.594 20.9098 37.272L 20.4758 36.012C 20.1678 36.292 19.5098 36.824 18.5718 36.824C 17.2138 36.824 16.2058 35.746 16.2058 34.346C 16.2058 32.96 17.1298 31.896 18.5158 31.896C 19.4398 31.896 20.1118 32.372 20.4478 32.694L 20.9098 31.406ZM 23.2194 34.36C 23.2194 32.932 24.1714 31.868 25.5434 31.868C 26.9014 31.868 27.8954 32.918 27.8954 34.346C 27.8954 35.774 26.9014 36.824 25.5434 36.824C 24.1854 36.824 23.2194 35.802 23.2194 34.36ZM 21.6794 34.36C 21.6794 36.572 23.3034 38.182 25.5434 38.182C 27.7694 38.182 29.4214 36.544 29.4214 34.346C 29.4214 32.148 27.7974 30.51 25.5434 30.51C 23.3454 30.51 21.6794 32.148 21.6794 34.36ZM 33.178 38.182C 34.158 38.182 34.914 37.636 35.236 37.048L 35.236 38L 36.734 38L 36.734 30.692L 35.208 30.692L 35.208 35.102C 35.208 36.11 34.578 36.81 33.612 36.81C 32.772 36.81 32.142 36.222 32.142 35.214L 32.142 30.692L 30.63 30.692L 30.63 35.088C 30.63 36.684 31.288 38.182 33.178 38.182ZM 41.9393 30.51C 40.9593 30.51 40.2033 31.07 39.8813 31.644L 39.8813 30.692L 38.3833 30.692L 38.3833 38L 39.9093 38L 39.9093 33.59C 39.9093 32.596 40.5393 31.882 41.5053 31.882C 42.3453 31.882 42.9753 32.47 42.9753 33.478L 42.9753 38L 44.4873 38L 44.4873 33.604C 44.4873 32.008 43.8293 30.51 41.9393 30.51ZM 46.2613 30.692L 45.4493 30.692L 45.4493 31.952L 46.2613 31.952L 46.2613 35.116C 46.2613 36.908 46.7933 38.098 48.5712 38.098C 49.0472 38.098 49.3132 38.042 49.3132 38.042L 49.3132 36.726C 49.3132 36.726 49.1452 36.74 49.0192 36.74C 48.2073 36.74 47.7733 36.488 47.7733 35.354L 47.7733 31.952L 49.2573 31.952L 49.2573 30.692L 47.7733 30.692L 47.7733 29.166L 46.2613 29.166L 46.2613 30.692ZM 61.1374 35.746C 61.1374 37.216 62.3554 38.182 63.8954 38.182C 64.8054 38.182 65.3934 37.874 65.7714 37.454L 65.8974 38L 67.2274 38L 67.2274 33.282C 67.2274 31.686 66.4854 30.51 64.3154 30.51C 63.0974 30.51 62.1174 30.972 61.5294 31.35L 62.1174 32.414C 62.6494 32.12 63.3494 31.84 64.1614 31.84C 65.1274 31.84 65.7154 32.344 65.7154 33.184L 65.7154 33.87C 65.4354 33.618 64.8054 33.338 63.9654 33.338C 62.2854 33.338 61.1374 34.332 61.1374 35.746ZM 62.6634 35.704C 62.6634 34.976 63.2794 34.444 64.2034 34.444C 65.1274 34.444 65.7574 34.934 65.7574 35.704C 65.7574 36.46 65.1134 36.964 64.2174 36.964C 63.2934 36.964 62.6634 36.432 62.6634 35.704ZM 72.3875 30.51C 71.4075 30.51 70.6515 31.07 70.3295 31.644L 70.3295 30.692L 68.8315 30.692L 68.8315 38L 70.3575 38L 70.3575 33.59C 70.3575 32.596 70.9875 31.882 71.9535 31.882C 72.7935 31.882 73.4235 32.47 73.4235 33.478L 73.4235 38L 74.9355 38L 74.9355 33.604C 74.9355 32.008 74.2775 30.51 72.3875 30.51ZM 83.4995 27.878L 81.9735 27.878L 81.9735 31.672C 81.7775 31.35 80.9935 30.51 79.6075 30.51C 77.5215 30.51 76.1355 32.106 76.1355 34.36C 76.1355 36.6 77.6195 38.182 79.7055 38.182C 81.1195 38.182 81.8615 37.3 82.0575 37.048L 82.0575 38L 83.4995 38L 83.4995 27.878ZM 82.0295 34.374C 82.0295 35.718 81.2035 36.838 79.8595 36.838C 78.6135 36.838 77.6755 35.872 77.6755 34.374C 77.6755 32.904 78.5715 31.868 79.8455 31.868C 81.0635 31.868 82.0295 32.778 82.0295 34.374ZM 103.552 35.802C 103.16 36.096 102.25 36.726 100.976 36.726C 98.8763 36.726 97.5043 35.13 97.5043 33.1C 97.5043 31.07 98.9183 29.474 100.962 29.474C 102.11 29.474 103.006 30.02 103.426 30.342L 103.888 28.97C 103.314 28.536 102.306 28.018 100.92 28.018C 98.0503 28.018 95.8943 30.216 95.8943 33.1C 95.8943 35.984 97.9663 38.182 100.934 38.182C 102.446 38.182 103.524 37.538 104.014 37.16L 103.552 35.802ZM 106.415 34.36C 106.415 32.932 107.367 31.868 108.739 31.868C 110.097 31.868 111.091 32.918 111.091 34.346C 111.091 35.774 110.097 36.824 108.739 36.824C 107.381 36.824 106.415 35.802 106.415 34.36ZM 104.875 34.36C 104.875 36.572 106.499 38.182 108.739 38.182C 110.965 38.182 112.617 36.544 112.617 34.346C 112.617 32.148 110.993 30.51 108.739 30.51C 106.541 30.51 104.875 32.148 104.875 34.36ZM 113.881 38L 115.407 38L 115.407 27.878L 113.881 27.878L 113.881 38ZM 117.122 38L 118.648 38L 118.648 27.878L 117.122 27.878L 117.122 38ZM 119.928 34.374C 119.928 36.586 121.44 38.182 123.722 38.182C 125.458 38.182 126.424 37.188 126.774 36.586L 125.766 35.83C 125.486 36.236 124.856 36.852 123.75 36.852C 122.448 36.852 121.51 36.012 121.482 34.71L 126.984 34.71C 126.998 34.584 126.998 34.458 126.998 34.332C 126.998 32.036 125.696 30.51 123.484 30.51C 121.482 30.51 119.928 32.106 119.928 34.374ZM 121.538 33.66C 121.636 32.512 122.448 31.784 123.498 31.784C 124.548 31.784 125.388 32.456 125.444 33.66L 121.538 33.66ZM 128.685 39.988C 129.329 40.366 130.351 40.688 131.331 40.688C 133.459 40.688 135.125 39.778 135.125 37.034L 135.125 30.692L 133.683 30.692L 133.683 31.672C 133.459 31.336 132.675 30.51 131.303 30.51C 129.231 30.51 127.775 32.106 127.775 34.36C 127.775 36.6 129.175 38.182 131.275 38.182C 132.717 38.182 133.445 37.286 133.613 37.048L 133.613 37.538C 133.613 38.924 132.535 39.372 131.317 39.372C 130.295 39.372 129.441 38.966 129.175 38.812L 128.685 39.988ZM 133.655 34.346C 133.655 35.788 132.801 36.824 131.485 36.824C 130.239 36.824 129.301 35.844 129.301 34.346C 129.301 32.876 130.211 31.868 131.471 31.868C 132.731 31.868 133.655 32.848 133.655 34.346ZM 136.348 34.374C 136.348 36.586 137.86 38.182 140.142 38.182C 141.878 38.182 142.844 37.188 143.194 36.586L 142.186 35.83C 141.906 36.236 141.276 36.852 140.17 36.852C 138.868 36.852 137.93 36.012 137.902 34.71L 143.404 34.71C 143.418 34.584 143.418 34.458 143.418 34.332C 143.418 32.036 142.116 30.51 139.904 30.51C 137.902 30.51 136.348 32.106 136.348 34.374ZM 137.958 33.66C 138.056 32.512 138.868 31.784 139.918 31.784C 140.968 31.784 141.808 32.456 141.864 33.66L 137.958 33.66ZM 144.811 38L 147.933 38C 149.683 38 151.111 36.866 151.111 35.116C 151.111 34.066 150.523 33.268 149.557 32.862C 150.299 32.456 150.789 31.686 150.789 30.748C 150.789 29.236 149.599 28.2 147.695 28.2L 144.811 28.2L 144.811 38ZM 146.365 32.302L 146.365 29.558L 147.737 29.558C 148.633 29.558 149.193 30.076 149.193 30.902C 149.193 31.742 148.591 32.302 147.751 32.302L 146.365 32.302ZM 146.365 36.656L 146.365 33.576L 147.779 33.576C 148.745 33.576 149.501 34.066 149.501 35.116C 149.501 36.138 148.759 36.656 147.779 36.656L 146.365 36.656ZM 152.002 35.746C 152.002 37.216 153.22 38.182 154.76 38.182C 155.67 38.182 156.258 37.874 156.636 37.454L 156.762 38L 158.092 38L 158.092 33.282C 158.092 31.686 157.35 30.51 155.18 30.51C 153.962 30.51 152.982 30.972 152.394 31.35L 152.982 32.414C 153.514 32.12 154.214 31.84 155.026 31.84C 155.992 31.84 156.58 32.344 156.58 33.184L 156.58 33.87C 156.3 33.618 155.67 33.338 154.83 33.338C 153.15 33.338 152.002 34.332 152.002 35.746ZM 153.528 35.704C 153.528 34.976 154.144 34.444 155.068 34.444C 155.992 34.444 156.622 34.934 156.622 35.704C 156.622 36.46 155.978 36.964 155.082 36.964C 154.158 36.964 153.528 36.432 153.528 35.704ZM 165.492 31.406C 165.072 31.042 164.26 30.51 163.056 30.51C 160.886 30.51 159.248 32.162 159.248 34.346C 159.248 36.544 160.844 38.182 163.07 38.182C 164.288 38.182 165.128 37.594 165.492 37.272L 165.058 36.012C 164.75 36.292 164.092 36.824 163.154 36.824C 161.796 36.824 160.788 35.746 160.788 34.346C 160.788 32.96 161.712 31.896 163.098 31.896C 164.022 31.896 164.694 32.372 165.03 32.694L 165.492 31.406ZM 166.709 38L 168.235 38L 168.235 34.164L 171.063 38L 172.869 38L 169.747 33.996L 172.673 30.692L 170.937 30.692L 168.235 33.814L 168.235 27.878L 166.709 27.878L 166.709 38ZM 173.344 34.374C 173.344 36.586 174.856 38.182 177.138 38.182C 178.874 38.182 179.84 37.188 180.19 36.586L 179.182 35.83C 178.902 36.236 178.272 36.852 177.166 36.852C 175.864 36.852 174.926 36.012 174.898 34.71L 180.4 34.71C 180.414 34.584 180.414 34.458 180.414 34.332C 180.414 32.036 179.112 30.51 176.9 30.51C 174.898 30.51 173.344 32.106 173.344 34.374ZM 174.954 33.66C 175.052 32.512 175.864 31.784 176.914 31.784C 177.964 31.784 178.804 32.456 178.86 33.66L 174.954 33.66ZM 185.223 30.51C 184.187 30.51 183.417 31.112 183.137 31.84L 183.137 30.692L 181.639 30.692L 181.639 38L 183.165 38L 183.165 34.85C 183.165 33.268 183.627 32.05 185.223 32.05L 185.223 30.51ZM 203.942 38L 205.636 38L 207.96 30.692L 206.308 30.692L 204.698 36.292C 204.698 36.292 204.684 36.264 203.032 30.692L 201.576 30.692C 199.91 36.264 199.896 36.292 199.896 36.292L 198.3 30.692L 196.648 30.692L 198.972 38L 200.652 38L 202.304 32.764L 203.942 38ZM 208.916 38L 210.442 38L 210.442 30.692L 208.916 30.692L 208.916 38ZM 208.72 28.886C 208.72 29.418 209.14 29.838 209.672 29.838C 210.204 29.838 210.624 29.418 210.624 28.886C 210.624 28.354 210.204 27.934 209.672 27.934C 209.14 27.934 208.72 28.354 208.72 28.886ZM 212.156 38L 213.682 38L 213.682 27.878L 212.156 27.878L 212.156 38ZM 215.396 38L 216.922 38L 216.922 27.878L 215.396 27.878L 215.396 38ZM 229.236 35.746C 229.236 37.216 230.454 38.182 231.994 38.182C 232.904 38.182 233.492 37.874 233.87 37.454L 233.996 38L 235.326 38L 235.326 33.282C 235.326 31.686 234.584 30.51 232.414 30.51C 231.196 30.51 230.216 30.972 229.628 31.35L 230.216 32.414C 230.748 32.12 231.448 31.84 232.26 31.84C 233.226 31.84 233.814 32.344 233.814 33.184L 233.814 33.87C 233.534 33.618 232.904 33.338 232.064 33.338C 230.384 33.338 229.236 34.332 229.236 35.746ZM 230.762 35.704C 230.762 34.976 231.378 34.444 232.302 34.444C 233.226 34.444 233.856 34.934 233.856 35.704C 233.856 36.46 233.212 36.964 232.316 36.964C 231.392 36.964 230.762 36.432 230.762 35.704ZM 239.422 38.182C 240.402 38.182 241.158 37.636 241.48 37.048L 241.48 38L 242.978 38L 242.978 30.692L 241.452 30.692L 241.452 35.102C 241.452 36.11 240.822 36.81 239.856 36.81C 239.016 36.81 238.386 36.222 238.386 35.214L 238.386 30.692L 236.874 30.692L 236.874 35.088C 236.874 36.684 237.532 38.182 239.422 38.182ZM 244.753 30.692L 243.941 30.692L 243.941 31.952L 244.753 31.952L 244.753 35.116C 244.753 36.908 245.285 38.098 247.063 38.098C 247.539 38.098 247.805 38.042 247.805 38.042L 247.805 36.726C 247.805 36.726 247.637 36.74 247.511 36.74C 246.699 36.74 246.265 36.488 246.265 35.354L 246.265 31.952L 247.749 31.952L 247.749 30.692L 246.265 30.692L 246.265 29.166L 244.753 29.166L 244.753 30.692ZM 250.122 34.36C 250.122 32.932 251.074 31.868 252.446 31.868C 253.804 31.868 254.798 32.918 254.798 34.346C 254.798 35.774 253.804 36.824 252.446 36.824C 251.088 36.824 250.122 35.802 250.122 34.36ZM 248.582 34.36C 248.582 36.572 250.206 38.182 252.446 38.182C 254.672 38.182 256.324 36.544 256.324 34.346C 256.324 32.148 254.7 30.51 252.446 30.51C 250.248 30.51 248.582 32.148 248.582 34.36ZM 267.906 33.226C 267.906 31.644 267.066 30.51 265.414 30.51C 264.406 30.51 263.594 30.958 263.16 31.728C 262.81 30.986 262.082 30.51 261.06 30.51C 260.066 30.51 259.352 31.084 259.086 31.644C 259.086 31.644 259.086 31.308 259.086 30.692L 257.588 30.692L 257.588 38L 259.114 38L 259.114 33.604C 259.114 32.554 259.758 31.882 260.584 31.882C 261.452 31.882 261.984 32.484 261.984 33.478L 261.984 38L 263.51 38L 263.51 33.632C 263.51 32.512 264.14 31.882 264.994 31.882C 265.904 31.882 266.394 32.484 266.394 33.618L 266.394 38L 267.906 38L 267.906 33.226ZM 269.117 35.746C 269.117 37.216 270.335 38.182 271.875 38.182C 272.785 38.182 273.373 37.874 273.751 37.454L 273.877 38L 275.207 38L 275.207 33.282C 275.207 31.686 274.465 30.51 272.295 30.51C 271.077 30.51 270.097 30.972 269.509 31.35L 270.097 32.414C 270.629 32.12 271.329 31.84 272.141 31.84C 273.107 31.84 273.695 32.344 273.695 33.184L 273.695 33.87C 273.415 33.618 272.785 33.338 271.945 33.338C 270.265 33.338 269.117 34.332 269.117 35.746ZM 270.643 35.704C 270.643 34.976 271.259 34.444 272.183 34.444C 273.107 34.444 273.737 34.934 273.737 35.704C 273.737 36.46 273.093 36.964 272.197 36.964C 271.273 36.964 270.643 36.432 270.643 35.704ZM 276.937 30.692L 276.125 30.692L 276.125 31.952L 276.937 31.952L 276.937 35.116C 276.937 36.908 277.469 38.098 279.247 38.098C 279.723 38.098 279.989 38.042 279.989 38.042L 279.989 36.726C 279.989 36.726 279.821 36.74 279.695 36.74C 278.883 36.74 278.449 36.488 278.449 35.354L 278.449 31.952L 279.933 31.952L 279.933 30.692L 278.449 30.692L 278.449 29.166L 276.937 29.166L 276.937 30.692ZM 281.213 38L 282.739 38L 282.739 30.692L 281.213 30.692L 281.213 38ZM 281.017 28.886C 281.017 29.418 281.437 29.838 281.969 29.838C 282.501 29.838 282.921 29.418 282.921 28.886C 282.921 28.354 282.501 27.934 281.969 27.934C 281.437 27.934 281.017 28.354 281.017 28.886ZM 290.25 31.406C 289.83 31.042 289.018 30.51 287.814 30.51C 285.644 30.51 284.006 32.162 284.006 34.346C 284.006 36.544 285.602 38.182 287.828 38.182C 289.046 38.182 289.886 37.594 290.25 37.272L 289.816 36.012C 289.508 36.292 288.85 36.824 287.912 36.824C 286.554 36.824 285.546 35.746 285.546 34.346C 285.546 32.96 286.47 31.896 287.856 31.896C 288.78 31.896 289.452 32.372 289.788 32.694L 290.25 31.406ZM 291.019 35.746C 291.019 37.216 292.237 38.182 293.777 38.182C 294.687 38.182 295.275 37.874 295.653 37.454L 295.779 38L 297.109 38L 297.109 33.282C 297.109 31.686 296.367 30.51 294.197 30.51C 292.979 30.51 291.999 30.972 291.411 31.35L 291.999 32.414C 292.531 32.12 293.231 31.84 294.043 31.84C 295.009 31.84 295.597 32.344 295.597 33.184L 295.597 33.87C 295.317 33.618 294.687 33.338 293.847 33.338C 292.167 33.338 291.019 34.332 291.019 35.746ZM 292.545 35.704C 292.545 34.976 293.161 34.444 294.085 34.444C 295.009 34.444 295.639 34.934 295.639 35.704C 295.639 36.46 294.995 36.964 294.099 36.964C 293.175 36.964 292.545 36.432 292.545 35.704ZM 298.713 38L 300.239 38L 300.239 27.878L 298.713 27.878L 298.713 38ZM 301.954 38L 303.48 38L 303.48 27.878L 301.954 27.878L 301.954 38ZM 307.756 40.506L 311.578 30.692L 309.982 30.692L 308.036 36.012L 306.062 30.692L 304.424 30.692L 307.322 37.874L 306.286 40.506L 307.756 40.506ZM 330.499 27.878L 328.973 27.878L 328.973 31.672C 328.777 31.35 327.993 30.51 326.607 30.51C 324.521 30.51 323.135 32.106 323.135 34.36C 323.135 36.6 324.619 38.182 326.705 38.182C 328.119 38.182 328.861 37.3 329.057 37.048L 329.057 38L 330.499 38L 330.499 27.878ZM 329.029 34.374C 329.029 35.718 328.203 36.838 326.859 36.838C 325.613 36.838 324.675 35.872 324.675 34.374C 324.675 32.904 325.571 31.868 326.845 31.868C 328.063 31.868 329.029 32.778 329.029 34.374ZM 331.776 34.374C 331.776 36.586 333.288 38.182 335.57 38.182C 337.306 38.182 338.272 37.188 338.622 36.586L 337.614 35.83C 337.334 36.236 336.704 36.852 335.598 36.852C 334.296 36.852 333.358 36.012 333.33 34.71L 338.832 34.71C 338.846 34.584 338.846 34.458 338.846 34.332C 338.846 32.036 337.544 30.51 335.332 30.51C 333.33 30.51 331.776 32.106 331.776 34.374ZM 333.386 33.66C 333.484 32.512 334.296 31.784 335.346 31.784C 336.396 31.784 337.236 32.456 337.292 33.66L 333.386 33.66ZM 340.072 38L 341.598 38L 341.598 27.878L 340.072 27.878L 340.072 38ZM 342.878 34.374C 342.878 36.586 344.39 38.182 346.672 38.182C 348.408 38.182 349.374 37.188 349.724 36.586L 348.716 35.83C 348.436 36.236 347.806 36.852 346.7 36.852C 345.398 36.852 344.46 36.012 344.432 34.71L 349.934 34.71C 349.948 34.584 349.948 34.458 349.948 34.332C 349.948 32.036 348.646 30.51 346.434 30.51C 344.432 30.51 342.878 32.106 342.878 34.374ZM 344.488 33.66C 344.586 32.512 345.398 31.784 346.448 31.784C 347.498 31.784 348.338 32.456 348.394 33.66L 344.488 33.66ZM 351.299 30.692L 350.487 30.692L 350.487 31.952L 351.299 31.952L 351.299 35.116C 351.299 36.908 351.831 38.098 353.609 38.098C 354.085 38.098 354.351 38.042 354.351 38.042L 354.351 36.726C 354.351 36.726 354.183 36.74 354.057 36.74C 353.245 36.74 352.811 36.488 352.811 35.354L 352.811 31.952L 354.295 31.952L 354.295 30.692L 352.811 30.692L 352.811 29.166L 351.299 29.166L 351.299 30.692ZM 355.142 34.374C 355.142 36.586 356.654 38.182 358.936 38.182C 360.672 38.182 361.638 37.188 361.988 36.586L 360.98 35.83C 360.7 36.236 360.07 36.852 358.964 36.852C 357.662 36.852 356.724 36.012 356.696 34.71L 362.198 34.71C 362.212 34.584 362.212 34.458 362.212 34.332C 362.212 32.036 360.91 30.51 358.698 30.51C 356.696 30.51 355.142 32.106 355.142 34.374ZM 356.752 33.66C 356.85 32.512 357.662 31.784 358.712 31.784C 359.762 31.784 360.602 32.456 360.658 33.66L 356.752 33.66ZM 374.611 30.692L 373.799 30.692L 373.799 31.952L 374.611 31.952L 374.611 35.116C 374.611 36.908 375.143 38.098 376.921 38.098C 377.397 38.098 377.663 38.042 377.663 38.042L 377.663 36.726C 377.663 36.726 377.495 36.74 377.369 36.74C 376.557 36.74 376.123 36.488 376.123 35.354L 376.123 31.952L 377.607 31.952L 377.607 30.692L 376.123 30.692L 376.123 29.166L 374.611 29.166L 374.611 30.692ZM 382.457 30.51C 381.477 30.51 380.735 31.07 380.413 31.644L 380.413 27.878L 378.887 27.878L 378.887 38L 380.413 38L 380.413 33.59C 380.413 32.596 381.057 31.882 382.023 31.882C 382.863 31.882 383.493 32.47 383.493 33.478L 383.493 38L 385.005 38L 385.005 33.604C 385.005 32.008 384.347 30.51 382.457 30.51ZM 386.653 38L 388.179 38L 388.179 30.692L 386.653 30.692L 386.653 38ZM 386.457 28.886C 386.457 29.418 386.877 29.838 387.409 29.838C 387.941 29.838 388.361 29.418 388.361 28.886C 388.361 28.354 387.941 27.934 387.409 27.934C 386.877 27.934 386.457 28.354 386.457 28.886ZM 389.375 36.726C 389.739 37.384 390.523 38.182 392.007 38.182C 393.505 38.182 394.653 37.3 394.653 35.942C 394.653 33.366 391.083 33.954 391.083 32.554C 391.083 32.05 391.503 31.756 392.063 31.756C 392.875 31.756 393.267 32.232 393.477 32.568L 394.527 31.868C 394.247 31.308 393.519 30.51 392.147 30.51C 390.733 30.51 389.641 31.294 389.641 32.582C 389.641 35.116 393.197 34.612 393.197 36.012C 393.197 36.6 392.721 36.922 392.077 36.922C 391.167 36.922 390.663 36.46 390.327 35.97L 389.375 36.726ZM 0.854 61L 2.38 61L 2.38 53.692L 0.854 53.692L 0.854 61ZM 0.658 51.886C 0.658 52.418 1.078 52.838 1.61 52.838C 2.142 52.838 2.562 52.418 2.562 51.886C 2.562 51.354 2.142 50.934 1.61 50.934C 1.078 50.934 0.658 51.354 0.658 51.886ZM 7.65023 53.51C 6.67023 53.51 5.91423 54.07 5.59223 54.644L 5.59223 53.692L 4.09423 53.692L 4.09423 61L 5.62023 61L 5.62023 56.59C 5.62023 55.596 6.25023 54.882 7.21623 54.882C 8.05623 54.882 8.68623 55.47 8.68623 56.478L 8.68623 61L 10.1982 61L 10.1982 56.604C 10.1982 55.008 9.54023 53.51 7.65023 53.51ZM 11.3282 59.726C 11.6922 60.384 12.4762 61.182 13.9602 61.182C 15.4582 61.182 16.6062 60.3 16.6062 58.942C 16.6062 56.366 13.0362 56.954 13.0362 55.554C 13.0362 55.05 13.4562 54.756 14.0162 54.756C 14.8282 54.756 15.2202 55.232 15.4302 55.568L 16.4802 54.868C 16.2002 54.308 15.4722 53.51 14.1002 53.51C 12.6862 53.51 11.5942 54.294 11.5942 55.582C 11.5942 58.116 15.1502 57.612 15.1502 59.012C 15.1502 59.6 14.6742 59.922 14.0302 59.922C 13.1202 59.922 12.6162 59.46 12.2802 58.97L 11.3282 59.726ZM 17.9331 53.692L 17.1211 53.692L 17.1211 54.952L 17.9331 54.952L 17.9331 58.116C 17.9331 59.908 18.4651 61.098 20.2431 61.098C 20.7191 61.098 20.9851 61.042 20.9851 61.042L 20.9851 59.726C 20.9851 59.726 20.8171 59.74 20.6911 59.74C 19.8791 59.74 19.4451 59.488 19.4451 58.354L 19.4451 54.952L 20.9291 54.952L 20.9291 53.692L 19.4451 53.692L 19.4451 52.166L 17.9331 52.166L 17.9331 53.692ZM 21.7615 58.746C 21.7615 60.216 22.9795 61.182 24.5195 61.182C 25.4295 61.182 26.0175 60.874 26.3955 60.454L 26.5215 61L 27.8515 61L 27.8515 56.282C 27.8515 54.686 27.1095 53.51 24.9395 53.51C 23.7215 53.51 22.7415 53.972 22.1535 54.35L 22.7415 55.414C 23.2735 55.12 23.9735 54.84 24.7855 54.84C 25.7515 54.84 26.3395 55.344 26.3395 56.184L 26.3395 56.87C 26.0595 56.618 25.4295 56.338 24.5895 56.338C 22.9095 56.338 21.7615 57.332 21.7615 58.746ZM 23.2875 58.704C 23.2875 57.976 23.9035 57.444 24.8275 57.444C 25.7515 57.444 26.3815 57.934 26.3815 58.704C 26.3815 59.46 25.7375 59.964 24.8415 59.964C 23.9175 59.964 23.2875 59.432 23.2875 58.704ZM 33.0116 53.51C 32.0316 53.51 31.2756 54.07 30.9536 54.644L 30.9536 53.692L 29.4556 53.692L 29.4556 61L 30.9816 61L 30.9816 56.59C 30.9816 55.596 31.6116 54.882 32.5776 54.882C 33.4176 54.882 34.0476 55.47 34.0476 56.478L 34.0476 61L 35.5596 61L 35.5596 56.604C 35.5596 55.008 34.9016 53.51 33.0116 53.51ZM 43.0035 54.406C 42.5835 54.042 41.7715 53.51 40.5675 53.51C 38.3975 53.51 36.7595 55.162 36.7595 57.346C 36.7595 59.544 38.3555 61.182 40.5815 61.182C 41.7995 61.182 42.6395 60.594 43.0035 60.272L 42.5695 59.012C 42.2615 59.292 41.6035 59.824 40.6655 59.824C 39.3075 59.824 38.2995 58.746 38.2995 57.346C 38.2995 55.96 39.2235 54.896 40.6095 54.896C 41.5335 54.896 42.2055 55.372 42.5415 55.694L 43.0035 54.406ZM 43.7872 57.374C 43.7872 59.586 45.2992 61.182 47.5812 61.182C 49.3172 61.182 50.2832 60.188 50.6332 59.586L 49.6252 58.83C 49.3452 59.236 48.7152 59.852 47.6092 59.852C 46.3072 59.852 45.3692 59.012 45.3412 57.71L 50.8432 57.71C 50.8572 57.584 50.8572 57.458 50.8572 57.332C 50.8572 55.036 49.5552 53.51 47.3432 53.51C 45.3412 53.51 43.7872 55.106 43.7872 57.374ZM 45.3972 56.66C 45.4952 55.512 46.3072 54.784 47.3572 54.784C 48.4072 54.784 49.2472 55.456 49.3032 56.66L 45.3972 56.66ZM 56.6882 57.36C 56.6882 55.932 57.6402 54.868 59.0122 54.868C 60.3702 54.868 61.3642 55.918 61.3642 57.346C 61.3642 58.774 60.3702 59.824 59.0122 59.824C 57.6542 59.824 56.6882 58.802 56.6882 57.36ZM 55.1482 57.36C 55.1482 59.572 56.7722 61.182 59.0122 61.182C 61.2382 61.182 62.8902 59.544 62.8902 57.346C 62.8902 55.148 61.2662 53.51 59.0122 53.51C 56.8142 53.51 55.1482 55.148 55.1482 57.36ZM 64.4348 61L 65.9608 61L 65.9608 54.952L 67.3748 54.952L 67.3748 53.692L 65.9608 53.692L 65.9608 53.398C 65.9608 52.572 66.3668 52.194 67.1088 52.194C 67.2768 52.194 67.4728 52.222 67.4728 52.222L 67.4728 50.92C 67.4728 50.92 67.2208 50.892 66.9268 50.892C 65.6248 50.892 64.4348 51.508 64.4348 53.37L 64.4348 53.692L 63.6368 53.692L 63.6368 54.952L 64.4348 54.952L 64.4348 61ZM 72.1284 53.692L 71.3164 53.692L 71.3164 54.952L 72.1284 54.952L 72.1284 58.116C 72.1284 59.908 72.6604 61.098 74.4384 61.098C 74.9144 61.098 75.1804 61.042 75.1804 61.042L 75.1804 59.726C 75.1804 59.726 75.0124 59.74 74.8864 59.74C 74.0744 59.74 73.6404 59.488 73.6404 58.354L 73.6404 54.952L 75.1244 54.952L 75.1244 53.692L 73.6404 53.692L 73.6404 52.166L 72.1284 52.166L 72.1284 53.692ZM 79.9748 53.51C 78.9948 53.51 78.2528 54.07 77.9308 54.644L 77.9308 50.878L 76.4048 50.878L 76.4048 61L 77.9308 61L 77.9308 56.59C 77.9308 55.596 78.5748 54.882 79.5408 54.882C 80.3808 54.882 81.0108 55.47 81.0108 56.478L 81.0108 61L 82.5228 61L 82.5228 56.604C 82.5228 55.008 81.8648 53.51 79.9748 53.51ZM 83.7364 57.374C 83.7364 59.586 85.2484 61.182 87.5304 61.182C 89.2664 61.182 90.2324 60.188 90.5824 59.586L 89.5744 58.83C 89.2944 59.236 88.6644 59.852 87.5584 59.852C 86.2564 59.852 85.3184 59.012 85.2904 57.71L 90.7924 57.71C 90.8064 57.584 90.8064 57.458 90.8064 57.332C 90.8064 55.036 89.5044 53.51 87.2924 53.51C 85.2904 53.51 83.7364 55.106 83.7364 57.374ZM 85.3464 56.66C 85.4444 55.512 86.2564 54.784 87.3064 54.784C 88.3564 54.784 89.1964 55.456 89.2524 56.66L 85.3464 56.66ZM 95.0974 58.746C 95.0974 60.216 96.3154 61.182 97.8554 61.182C 98.7654 61.182 99.3534 60.874 99.7314 60.454L 99.8574 61L 101.187 61L 101.187 56.282C 101.187 54.686 100.445 53.51 98.2754 53.51C 97.0574 53.51 96.0774 53.972 95.4894 54.35L 96.0774 55.414C 96.6094 55.12 97.3094 54.84 98.1214 54.84C 99.0874 54.84 99.6754 55.344 99.6754 56.184L 99.6754 56.87C 99.3954 56.618 98.7654 56.338 97.9254 56.338C 96.2454 56.338 95.0974 57.332 95.0974 58.746ZM 96.6234 58.704C 96.6234 57.976 97.2394 57.444 98.1634 57.444C 99.0874 57.444 99.7174 57.934 99.7174 58.704C 99.7174 59.46 99.0734 59.964 98.1774 59.964C 97.2534 59.964 96.6234 59.432 96.6234 58.704ZM 108.587 54.406C 108.167 54.042 107.355 53.51 106.151 53.51C 103.981 53.51 102.343 55.162 102.343 57.346C 102.343 59.544 103.94 61.182 106.165 61.182C 107.383 61.182 108.224 60.594 108.587 60.272L 108.154 59.012C 107.845 59.292 107.188 59.824 106.249 59.824C 104.891 59.824 103.883 58.746 103.883 57.346C 103.883 55.96 104.807 54.896 106.193 54.896C 107.118 54.896 107.79 55.372 108.126 55.694L 108.587 54.406ZM 115.601 54.406C 115.181 54.042 114.369 53.51 113.165 53.51C 110.995 53.51 109.357 55.162 109.357 57.346C 109.357 59.544 110.953 61.182 113.179 61.182C 114.397 61.182 115.237 60.594 115.601 60.272L 115.167 59.012C 114.859 59.292 114.201 59.824 113.263 59.824C 111.905 59.824 110.897 58.746 110.897 57.346C 110.897 55.96 111.821 54.896 113.207 54.896C 114.131 54.896 114.803 55.372 115.139 55.694L 115.601 54.406ZM 117.911 57.36C 117.911 55.932 118.863 54.868 120.235 54.868C 121.593 54.868 122.587 55.918 122.587 57.346C 122.587 58.774 121.593 59.824 120.235 59.824C 118.877 59.824 117.911 58.802 117.911 57.36ZM 116.371 57.36C 116.371 59.572 117.995 61.182 120.235 61.182C 122.461 61.182 124.113 59.544 124.113 57.346C 124.113 55.148 122.489 53.51 120.235 53.51C 118.037 53.51 116.371 55.148 116.371 57.36ZM 127.869 61.182C 128.849 61.182 129.605 60.636 129.927 60.048L 129.927 61L 131.425 61L 131.425 53.692L 129.899 53.692L 129.899 58.102C 129.899 59.11 129.269 59.81 128.303 59.81C 127.463 59.81 126.833 59.222 126.833 58.214L 126.833 53.692L 125.321 53.692L 125.321 58.088C 125.321 59.684 125.979 61.182 127.869 61.182ZM 136.631 53.51C 135.651 53.51 134.895 54.07 134.573 54.644L 134.573 53.692L 133.075 53.692L 133.075 61L 134.601 61L 134.601 56.59C 134.601 55.596 135.231 54.882 136.197 54.882C 137.037 54.882 137.667 55.47 137.667 56.478L 137.667 61L 139.179 61L 139.179 56.604C 139.179 55.008 138.521 53.51 136.631 53.51ZM 140.953 53.692L 140.141 53.692L 140.141 54.952L 140.953 54.952L 140.953 58.116C 140.953 59.908 141.485 61.098 143.263 61.098C 143.739 61.098 144.005 61.042 144.005 61.042L 144.005 59.726C 144.005 59.726 143.837 59.74 143.711 59.74C 142.899 59.74 142.465 59.488 142.465 58.354L 142.465 54.952L 143.949 54.952L 143.949 53.692L 142.465 53.692L 142.465 52.166L 140.953 52.166L 140.953 53.692ZM 148.743 61L 150.269 61L 150.269 50.878L 148.743 50.878L 148.743 61ZM 151.983 61L 153.509 61L 153.509 53.692L 151.983 53.692L 151.983 61ZM 151.787 51.886C 151.787 52.418 152.207 52.838 152.739 52.838C 153.271 52.838 153.691 52.418 153.691 51.886C 153.691 51.354 153.271 50.934 152.739 50.934C 152.207 50.934 151.787 51.354 151.787 51.886ZM 158.779 53.51C 157.799 53.51 157.043 54.07 156.721 54.644L 156.721 53.692L 155.223 53.692L 155.223 61L 156.749 61L 156.749 56.59C 156.749 55.596 157.379 54.882 158.345 54.882C 159.185 54.882 159.815 55.47 159.815 56.478L 159.815 61L 161.327 61L 161.327 56.604C 161.327 55.008 160.669 53.51 158.779 53.51ZM 162.975 61L 164.501 61L 164.501 57.164L 167.329 61L 169.135 61L 166.013 56.996L 168.939 53.692L 167.203 53.692L 164.501 56.814L 164.501 50.878L 162.975 50.878L 162.975 61ZM 169.609 57.374C 169.609 59.586 171.121 61.182 173.403 61.182C 175.139 61.182 176.105 60.188 176.455 59.586L 175.447 58.83C 175.167 59.236 174.537 59.852 173.431 59.852C 172.129 59.852 171.191 59.012 171.163 57.71L 176.665 57.71C 176.679 57.584 176.679 57.458 176.679 57.332C 176.679 55.036 175.377 53.51 173.165 53.51C 171.163 53.51 169.609 55.106 169.609 57.374ZM 171.219 56.66C 171.317 55.512 172.129 54.784 173.179 54.784C 174.229 54.784 175.069 55.456 175.125 56.66L 171.219 56.66ZM 184.821 50.878L 183.295 50.878L 183.295 54.672C 183.099 54.35 182.315 53.51 180.929 53.51C 178.843 53.51 177.457 55.106 177.457 57.36C 177.457 59.6 178.941 61.182 181.027 61.182C 182.441 61.182 183.183 60.3 183.379 60.048L 183.379 61L 184.821 61L 184.821 50.878ZM 183.351 57.374C 183.351 58.718 182.525 59.838 181.181 59.838C 179.935 59.838 178.997 58.872 178.997 57.374C 178.997 55.904 179.893 54.868 181.167 54.868C 182.385 54.868 183.351 55.778 183.351 57.374ZM 196.583 61L 198.277 61L 200.601 53.692L 198.949 53.692L 197.339 59.292C 197.339 59.292 197.325 59.264 195.673 53.692L 194.217 53.692C 192.551 59.264 192.537 59.292 192.537 59.292L 190.941 53.692L 189.289 53.692L 191.613 61L 193.293 61L 194.945 55.764L 196.583 61ZM 201.557 61L 203.083 61L 203.083 53.692L 201.557 53.692L 201.557 61ZM 201.361 51.886C 201.361 52.418 201.781 52.838 202.313 52.838C 202.845 52.838 203.265 52.418 203.265 51.886C 203.265 51.354 202.845 50.934 202.313 50.934C 201.781 50.934 201.361 51.354 201.361 51.886ZM 204.923 53.692L 204.111 53.692L 204.111 54.952L 204.923 54.952L 204.923 58.116C 204.923 59.908 205.455 61.098 207.233 61.098C 207.709 61.098 207.975 61.042 207.975 61.042L 207.975 59.726C 207.975 59.726 207.807 59.74 207.681 59.74C 206.869 59.74 206.435 59.488 206.435 58.354L 206.435 54.952L 207.919 54.952L 207.919 53.692L 206.435 53.692L 206.435 52.166L 204.923 52.166L 204.923 53.692ZM 212.77 53.51C 211.79 53.51 211.048 54.07 210.726 54.644L 210.726 50.878L 209.2 50.878L 209.2 61L 210.726 61L 210.726 56.59C 210.726 55.596 211.37 54.882 212.336 54.882C 213.176 54.882 213.806 55.47 213.806 56.478L 213.806 61L 215.318 61L 215.318 56.604C 215.318 55.008 214.66 53.51 212.77 53.51ZM 223.041 63.506L 226.863 53.692L 225.267 53.692L 223.321 59.012L 221.347 53.692L 219.709 53.692L 222.607 60.874L 221.571 63.506L 223.041 63.506ZM 228.913 57.36C 228.913 55.932 229.865 54.868 231.237 54.868C 232.595 54.868 233.589 55.918 233.589 57.346C 233.589 58.774 232.595 59.824 231.237 59.824C 229.879 59.824 228.913 58.802 228.913 57.36ZM 227.373 57.36C 227.373 59.572 228.997 61.182 231.237 61.182C 233.463 61.182 235.115 59.544 235.115 57.346C 235.115 55.148 233.491 53.51 231.237 53.51C 229.039 53.51 227.373 55.148 227.373 57.36ZM 238.871 61.182C 239.851 61.182 240.607 60.636 240.929 60.048L 240.929 61L 242.427 61L 242.427 53.692L 240.901 53.692L 240.901 58.102C 240.901 59.11 240.271 59.81 239.305 59.81C 238.465 59.81 237.835 59.222 237.835 58.214L 237.835 53.692L 236.323 53.692L 236.323 58.088C 236.323 59.684 236.981 61.182 238.871 61.182ZM 247.661 53.51C 246.625 53.51 245.855 54.112 245.575 54.84L 245.575 53.692L 244.077 53.692L 244.077 61L 245.603 61L 245.603 57.85C 245.603 56.268 246.065 55.05 247.661 55.05L 247.661 53.51ZM 251.873 57.374C 251.873 59.586 253.385 61.182 255.667 61.182C 257.403 61.182 258.369 60.188 258.719 59.586L 257.711 58.83C 257.431 59.236 256.801 59.852 255.695 59.852C 254.393 59.852 253.455 59.012 253.427 57.71L 258.929 57.71C 258.943 57.584 258.943 57.458 258.943 57.332C 258.943 55.036 257.641 53.51 255.429 53.51C 253.427 53.51 251.873 55.106 251.873 57.374ZM 253.483 56.66C 253.581 55.512 254.393 54.784 255.443 54.784C 256.493 54.784 257.333 55.456 257.389 56.66L 253.483 56.66ZM 270.486 56.226C 270.486 54.644 269.646 53.51 267.994 53.51C 266.986 53.51 266.174 53.958 265.74 54.728C 265.39 53.986 264.662 53.51 263.64 53.51C 262.646 53.51 261.932 54.084 261.666 54.644C 261.666 54.644 261.666 54.308 261.666 53.692L 260.168 53.692L 260.168 61L 261.694 61L 261.694 56.604C 261.694 55.554 262.338 54.882 263.164 54.882C 264.032 54.882 264.564 55.484 264.564 56.478L 264.564 61L 266.09 61L 266.09 56.632C 266.09 55.512 266.72 54.882 267.574 54.882C 268.484 54.882 268.974 55.484 268.974 56.618L 268.974 61L 270.486 61L 270.486 56.226ZM 271.697 58.746C 271.697 60.216 272.915 61.182 274.455 61.182C 275.365 61.182 275.953 60.874 276.331 60.454L 276.457 61L 277.787 61L 277.787 56.282C 277.787 54.686 277.045 53.51 274.875 53.51C 273.657 53.51 272.677 53.972 272.089 54.35L 272.677 55.414C 273.209 55.12 273.909 54.84 274.721 54.84C 275.687 54.84 276.275 55.344 276.275 56.184L 276.275 56.87C 275.995 56.618 275.365 56.338 274.525 56.338C 272.845 56.338 271.697 57.332 271.697 58.746ZM 273.223 58.704C 273.223 57.976 273.839 57.444 274.763 57.444C 275.687 57.444 276.317 57.934 276.317 58.704C 276.317 59.46 275.673 59.964 274.777 59.964C 273.853 59.964 273.223 59.432 273.223 58.704ZM 279.391 61L 280.917 61L 280.917 53.692L 279.391 53.692L 279.391 61ZM 279.195 51.886C 279.195 52.418 279.615 52.838 280.147 52.838C 280.679 52.838 281.099 52.418 281.099 51.886C 281.099 51.354 280.679 50.934 280.147 50.934C 279.615 50.934 279.195 51.354 279.195 51.886ZM 282.631 61L 284.157 61L 284.157 50.878L 282.631 50.878L 282.631 61ZM 290.477 57.36C 290.477 55.932 291.429 54.868 292.801 54.868C 294.159 54.868 295.153 55.918 295.153 57.346C 295.153 58.774 294.159 59.824 292.801 59.824C 291.443 59.824 290.477 58.802 290.477 57.36ZM 288.937 57.36C 288.937 59.572 290.561 61.182 292.801 61.182C 295.027 61.182 296.679 59.544 296.679 57.346C 296.679 55.148 295.055 53.51 292.801 53.51C 290.603 53.51 288.937 55.148 288.937 57.36ZM 301.528 53.51C 300.492 53.51 299.722 54.112 299.442 54.84L 299.442 53.692L 297.944 53.692L 297.944 61L 299.47 61L 299.47 57.85C 299.47 56.268 299.932 55.05 301.528 55.05L 301.528 53.51ZM 305.656 59.726C 306.02 60.384 306.804 61.182 308.288 61.182C 309.786 61.182 310.934 60.3 310.934 58.942C 310.934 56.366 307.364 56.954 307.364 55.554C 307.364 55.05 307.784 54.756 308.344 54.756C 309.156 54.756 309.548 55.232 309.758 55.568L 310.808 54.868C 310.528 54.308 309.8 53.51 308.428 53.51C 307.014 53.51 305.922 54.294 305.922 55.582C 305.922 58.116 309.478 57.612 309.478 59.012C 309.478 59.6 309.002 59.922 308.358 59.922C 307.448 59.922 306.944 59.46 306.608 58.97L 305.656 59.726ZM 312.261 53.692L 311.449 53.692L 311.449 54.952L 312.261 54.952L 312.261 58.116C 312.261 59.908 312.793 61.098 314.571 61.098C 315.047 61.098 315.313 61.042 315.313 61.042L 315.313 59.726C 315.313 59.726 315.145 59.74 315.019 59.74C 314.207 59.74 313.773 59.488 313.773 58.354L 313.773 54.952L 315.257 54.952L 315.257 53.692L 313.773 53.692L 313.773 52.166L 312.261 52.166L 312.261 53.692ZM 319.03 61.182C 320.01 61.182 320.766 60.636 321.088 60.048L 321.088 61L 322.586 61L 322.586 53.692L 321.06 53.692L 321.06 58.102C 321.06 59.11 320.43 59.81 319.464 59.81C 318.624 59.81 317.994 59.222 317.994 58.214L 317.994 53.692L 316.482 53.692L 316.482 58.088C 316.482 59.684 317.14 61.182 319.03 61.182ZM 331.151 50.878L 329.625 50.878L 329.625 54.672C 329.429 54.35 328.645 53.51 327.259 53.51C 325.173 53.51 323.787 55.106 323.787 57.36C 323.787 59.6 325.271 61.182 327.357 61.182C 328.771 61.182 329.513 60.3 329.709 60.048L 329.709 61L 331.151 61L 331.151 50.878ZM 329.681 57.374C 329.681 58.718 328.855 59.838 327.511 59.838C 326.265 59.838 325.327 58.872 325.327 57.374C 325.327 55.904 326.223 54.868 327.497 54.868C 328.715 54.868 329.681 55.778 329.681 57.374ZM 332.428 57.374C 332.428 59.586 333.94 61.182 336.222 61.182C 337.958 61.182 338.924 60.188 339.274 59.586L 338.266 58.83C 337.986 59.236 337.356 59.852 336.25 59.852C 334.948 59.852 334.01 59.012 333.982 57.71L 339.484 57.71C 339.498 57.584 339.498 57.458 339.498 57.332C 339.498 55.036 338.196 53.51 335.984 53.51C 333.982 53.51 332.428 55.106 332.428 57.374ZM 334.038 56.66C 334.136 55.512 334.948 54.784 335.998 54.784C 337.048 54.784 337.888 55.456 337.944 56.66L 334.038 56.66ZM 344.279 53.51C 343.299 53.51 342.543 54.07 342.221 54.644L 342.221 53.692L 340.723 53.692L 340.723 61L 342.249 61L 342.249 56.59C 342.249 55.596 342.879 54.882 343.845 54.882C 344.685 54.882 345.315 55.47 345.315 56.478L 345.315 61L 346.827 61L 346.827 56.604C 346.827 55.008 346.169 53.51 344.279 53.51ZM 348.601 53.692L 347.789 53.692L 347.789 54.952L 348.601 54.952L 348.601 58.116C 348.601 59.908 349.133 61.098 350.911 61.098C 351.387 61.098 351.653 61.042 351.653 61.042L 351.653 59.726C 351.653 59.726 351.485 59.74 351.359 59.74C 350.547 59.74 350.113 59.488 350.113 58.354L 350.113 54.952L 351.597 54.952L 351.597 53.692L 350.113 53.692L 350.113 52.166L 348.601 52.166L 348.601 53.692ZM 356.559 61L 358.113 61L 358.113 51.2L 356.559 51.2L 356.559 61ZM 360.168 61L 362.478 61C 365.712 61 367.7 59.292 367.7 56.1C 367.7 53.034 365.754 51.2 362.478 51.2L 360.168 51.2L 360.168 61ZM 361.722 59.642L 361.722 52.572L 362.632 52.572C 364.732 52.572 366.09 53.846 366.09 56.1C 366.09 58.438 364.732 59.642 362.632 59.642L 361.722 59.642ZM 368.239 60.202C 368.239 60.734 368.687 61.182 369.233 61.182C 369.779 61.182 370.227 60.734 370.227 60.202C 370.227 59.656 369.779 59.208 369.233 59.208C 368.687 59.208 368.239 59.656 368.239 60.202Z"/>
<path id="path3_stroke" d="M -0.353553 0.353553L 29.6464 30.3536L 30.3536 29.6464L 0.353553 -0.353553L -0.353553 0.353553ZM 29.6464 -0.353553L -0.353553 29.6464L 0.353553 30.3536L 30.3536 0.353553L 29.6464 -0.353553Z"/>
<path id="path4_fill" d="M 0 20C 0 8.9543 8.9543 0 20 0L 180 0C 191.046 0 200 8.9543 200 20L 200 24C 200 35.0457 191.046 44 180 44L 20 44C 8.9543 44 0 35.0457 0 24L 0 20Z"/>
<path id="path5_stroke_2x" d="M 20 2L 180 2L 180 -2L 20 -2L 20 2ZM 198 20L 198 24L 202 24L 202 20L 198 20ZM 180 42L 20 42L 20 46L 180 46L 180 42ZM 2 24L 2 20L -2 20L -2 24L 2 24ZM 20 -2C 7.84974 -2 -2 7.84974 -2 20L 2 20C 2 10.0589 10.0589 2 20 2L 20 -2ZM 180 2C 189.941 2 198 10.0589 198 20L 202 20C 202 7.84974 192.15 -2 180 -2L 180 2ZM 198 24C 198 33.9411 189.941 42 180 42L 180 46C 192.15 46 202 36.1503 202 24L 198 24ZM 20 42C 10.0589 42 2 33.9411 2 24L -2 24C -2 36.1503 7.84974 46 20 46L 20 42Z"/>
<path id="path6_fill" d="M 28.2073 21.94L 32.0673 21.94L 32.0673 20.06L 30.3673 20.06L 30.3673 5.24L 32.0673 5.24L 32.0673 3.36L 28.2073 3.36L 28.2073 21.94ZM 34.1541 12C 34.1541 16.14 37.1741 19.26 41.3541 19.26C 45.5541 19.26 48.5741 16.12 48.5741 12C 48.5741 7.92 45.5541 4.74 41.3741 4.74C 37.1941 4.74 34.1541 7.9 34.1541 12ZM 36.4741 12C 36.4741 9.04 38.5541 6.82 41.3741 6.82C 44.1741 6.82 46.2741 9.04 46.2741 12C 46.2741 15 44.1741 17.18 41.3741 17.18C 38.5541 17.18 36.4741 15 36.4741 12ZM 50.4948 22.74L 52.6748 22.74L 52.6748 17.62C 52.9548 18.06 54.0748 19.26 56.0548 19.26C 59.0348 19.26 61.0148 17 61.0148 13.76C 61.0148 10.58 58.8948 8.3 55.9148 8.3C 53.8948 8.3 52.8348 9.56 52.5548 9.94L 52.5548 8.56L 50.4948 8.56L 50.4948 22.74ZM 52.5948 13.76C 52.5948 11.84 53.7748 10.24 55.6948 10.24C 57.4748 10.24 58.8148 11.62 58.8148 13.76C 58.8148 15.86 57.5348 17.32 55.7148 17.32C 53.9748 17.32 52.5948 16.02 52.5948 13.76ZM 63.0186 8.56L 61.8586 8.56L 61.8586 10.36L 63.0186 10.36L 63.0186 14.88C 63.0186 17.44 63.7786 19.14 66.3186 19.14C 66.9986 19.14 67.3786 19.06 67.3786 19.06L 67.3786 17.18C 67.3786 17.18 67.1386 17.2 66.9586 17.2C 65.7986 17.2 65.1786 16.84 65.1786 15.22L 65.1786 10.36L 67.2986 10.36L 67.2986 8.56L 65.1786 8.56L 65.1786 6.38L 63.0186 6.38L 63.0186 8.56ZM 73.6072 12C 73.6072 16.14 76.6272 19.26 80.8072 19.26C 85.0072 19.26 88.0272 16.12 88.0272 12C 88.0272 7.92 85.0072 4.74 80.8272 4.74C 76.6472 4.74 73.6072 7.9 73.6072 12ZM 75.9272 12C 75.9272 9.04 78.0072 6.82 80.8272 6.82C 83.6272 6.82 85.7272 9.04 85.7272 12C 85.7272 15 83.6272 17.18 80.8272 17.18C 78.0072 17.18 75.9272 15 75.9272 12ZM 93.508 19.26C 94.908 19.26 95.988 18.48 96.448 17.64L 96.448 19L 98.588 19L 98.588 8.56L 96.408 8.56L 96.408 14.86C 96.408 16.3 95.508 17.3 94.128 17.3C 92.928 17.3 92.028 16.46 92.028 15.02L 92.028 8.56L 89.868 8.56L 89.868 14.84C 89.868 17.12 90.808 19.26 93.508 19.26ZM 101.124 8.56L 99.9641 8.56L 99.9641 10.36L 101.124 10.36L 101.124 14.88C 101.124 17.44 101.884 19.14 104.424 19.14C 105.104 19.14 105.484 19.06 105.484 19.06L 105.484 17.18C 105.484 17.18 105.244 17.2 105.064 17.2C 103.904 17.2 103.284 16.84 103.284 15.22L 103.284 10.36L 105.404 10.36L 105.404 8.56L 103.284 8.56L 103.284 6.38L 101.124 6.38L 101.124 8.56ZM 111.273 3.36L 107.413 3.36L 107.413 5.24L 109.113 5.24L 109.113 20.06L 107.413 20.06L 107.413 21.94L 111.273 21.94L 111.273 3.36Z"/>
<path id="path7_fill" d="M 15.9753 9L 17.2953 9L 17.2953 2.796L 21.4233 9L 22.7433 9L 22.7433 0.6L 21.4353 0.6L 21.4353 6.84L 17.3193 0.6L 15.9753 0.6L 15.9753 9ZM 25.2871 5.88C 25.2871 4.656 26.1031 3.744 27.2791 3.744C 28.4431 3.744 29.2951 4.644 29.2951 5.868C 29.2951 7.092 28.4431 7.992 27.2791 7.992C 26.1151 7.992 25.2871 7.116 25.2871 5.88ZM 23.9671 5.88C 23.9671 7.776 25.3591 9.156 27.2791 9.156C 29.1871 9.156 30.6031 7.752 30.6031 5.868C 30.6031 3.984 29.2111 2.58 27.2791 2.58C 25.3951 2.58 23.9671 3.984 23.9671 5.88ZM 31.4711 8.316C 31.4711 8.688 31.7351 9.06 32.1791 9.144C 32.1191 9.528 31.7471 9.9 31.5071 10.068L 32.0591 10.644C 32.7071 10.128 33.1871 9.348 33.1871 8.376C 33.1871 7.8 32.7911 7.464 32.3111 7.464C 31.8431 7.464 31.4711 7.848 31.4711 8.316ZM 37.5733 9L 38.9053 9L 38.9053 0.6L 37.5733 0.6L 37.5733 9ZM 40.175 1.164C 40.175 1.536 40.427 1.908 40.871 1.992C 40.811 2.376 40.439 2.748 40.199 2.916L 40.751 3.492C 41.411 2.976 41.879 2.196 41.879 1.224C 41.879 0.648 41.495 0.312 41.003 0.312C 40.535 0.312 40.175 0.696 40.175 1.164ZM 48.5487 0.324L 47.2407 0.324L 47.2407 3.576C 47.0727 3.3 46.4007 2.58 45.2127 2.58C 43.4247 2.58 42.2367 3.948 42.2367 5.88C 42.2367 7.8 43.5087 9.156 45.2967 9.156C 46.5087 9.156 47.1447 8.4 47.3127 8.184L 47.3127 9L 48.5487 9L 48.5487 0.324ZM 47.2887 5.892C 47.2887 7.044 46.5807 8.004 45.4287 8.004C 44.3607 8.004 43.5567 7.176 43.5567 5.892C 43.5567 4.632 44.3247 3.744 45.4167 3.744C 46.4607 3.744 47.2887 4.524 47.2887 5.892ZM 53.0269 9L 54.3349 9L 54.3349 0.324L 53.0269 0.324L 53.0269 9ZM 55.8043 9L 57.1123 9L 57.1123 2.736L 55.8043 2.736L 55.8043 9ZM 55.6363 1.188C 55.6363 1.644 55.9963 2.004 56.4523 2.004C 56.9083 2.004 57.2683 1.644 57.2683 1.188C 57.2683 0.732 56.9083 0.372 56.4523 0.372C 55.9963 0.372 55.6363 0.732 55.6363 1.188ZM 58.5816 9L 59.8896 9L 59.8896 5.712L 62.3136 9L 63.8616 9L 61.1856 5.568L 63.6936 2.736L 62.2056 2.736L 59.8896 5.412L 59.8896 0.324L 58.5816 0.324L 58.5816 9ZM 64.2682 5.892C 64.2682 7.788 65.5642 9.156 67.5202 9.156C 69.0082 9.156 69.8362 8.304 70.1362 7.788L 69.2722 7.14C 69.0322 7.488 68.4922 8.016 67.5442 8.016C 66.4282 8.016 65.6242 7.296 65.6002 6.18L 70.3162 6.18C 70.3282 6.072 70.3282 5.964 70.3282 5.856C 70.3282 3.888 69.2122 2.58 67.3162 2.58C 65.6002 2.58 64.2682 3.948 64.2682 5.892ZM 65.6482 5.28C 65.7322 4.296 66.4282 3.672 67.3282 3.672C 68.2282 3.672 68.9482 4.248 68.9962 5.28L 65.6482 5.28ZM 74.4982 2.736L 73.8022 2.736L 73.8022 3.816L 74.4982 3.816L 74.4982 6.528C 74.4982 8.064 74.9542 9.084 76.4782 9.084C 76.8862 9.084 77.1142 9.036 77.1142 9.036L 77.1142 7.908C 77.1142 7.908 76.9702 7.92 76.8622 7.92C 76.1662 7.92 75.7942 7.704 75.7942 6.732L 75.7942 3.816L 77.0662 3.816L 77.0662 2.736L 75.7942 2.736L 75.7942 1.428L 74.4982 1.428L 74.4982 2.736ZM 79.0996 5.88C 79.0996 4.656 79.9156 3.744 81.0916 3.744C 82.2556 3.744 83.1076 4.644 83.1076 5.868C 83.1076 7.092 82.2556 7.992 81.0916 7.992C 79.9276 7.992 79.0996 7.116 79.0996 5.88ZM 77.7796 5.88C 77.7796 7.776 79.1716 9.156 81.0916 9.156C 82.9996 9.156 84.4156 7.752 84.4156 5.868C 84.4156 3.984 83.0236 2.58 81.0916 2.58C 79.2076 2.58 77.7796 3.984 77.7796 5.88ZM 88.5113 9L 89.8193 9L 89.8193 5.712L 92.2433 9L 93.7913 9L 91.1153 5.568L 93.6233 2.736L 92.1353 2.736L 89.8193 5.412L 89.8193 0.324L 88.5113 0.324L 88.5113 9ZM 94.1979 5.892C 94.1979 7.788 95.4939 9.156 97.4499 9.156C 98.9379 9.156 99.7659 8.304 100.066 7.788L 99.2019 7.14C 98.9619 7.488 98.4219 8.016 97.4739 8.016C 96.3579 8.016 95.5539 7.296 95.5299 6.18L 100.246 6.18C 100.258 6.072 100.258 5.964 100.258 5.856C 100.258 3.888 99.1419 2.58 97.2459 2.58C 95.5299 2.58 94.1979 3.948 94.1979 5.892ZM 95.5779 5.28C 95.6619 4.296 96.3579 3.672 97.2579 3.672C 98.1579 3.672 98.8779 4.248 98.9259 5.28L 95.5779 5.28ZM 100.936 5.892C 100.936 7.788 102.232 9.156 104.188 9.156C 105.676 9.156 106.504 8.304 106.804 7.788L 105.94 7.14C 105.7 7.488 105.16 8.016 104.212 8.016C 103.096 8.016 102.292 7.296 102.268 6.18L 106.984 6.18C 106.996 6.072 106.996 5.964 106.996 5.856C 106.996 3.888 105.88 2.58 103.984 2.58C 102.268 2.58 100.936 3.948 100.936 5.892ZM 102.316 5.28C 102.4 4.296 103.096 3.672 103.996 3.672C 104.896 3.672 105.616 4.248 105.664 5.28L 102.316 5.28ZM 108.046 11.244L 109.354 11.244L 109.354 8.172C 109.522 8.436 110.194 9.156 111.382 9.156C 113.17 9.156 114.358 7.8 114.358 5.856C 114.358 3.948 113.086 2.58 111.298 2.58C 110.086 2.58 109.45 3.336 109.282 3.564L 109.282 2.736L 108.046 2.736L 108.046 11.244ZM 109.306 5.856C 109.306 4.704 110.014 3.744 111.166 3.744C 112.234 3.744 113.038 4.572 113.038 5.856C 113.038 7.116 112.27 7.992 111.178 7.992C 110.134 7.992 109.306 7.212 109.306 5.856ZM 127.308 4.908C 127.308 3.552 126.588 2.58 125.172 2.58C 124.308 2.58 123.612 2.964 123.24 3.624C 122.94 2.988 122.316 2.58 121.44 2.58C 120.588 2.58 119.976 3.072 119.748 3.552C 119.748 3.552 119.748 3.264 119.748 2.736L 118.464 2.736L 118.464 9L 119.772 9L 119.772 5.232C 119.772 4.332 120.324 3.756 121.032 3.756C 121.776 3.756 122.232 4.272 122.232 5.124L 122.232 9L 123.54 9L 123.54 5.256C 123.54 4.296 124.08 3.756 124.812 3.756C 125.592 3.756 126.012 4.272 126.012 5.244L 126.012 9L 127.308 9L 127.308 4.908ZM 130.926 11.148L 134.202 2.736L 132.834 2.736L 131.166 7.296L 129.474 2.736L 128.07 2.736L 130.554 8.892L 129.666 11.148L 130.926 11.148ZM 137.651 7.068C 137.651 8.328 138.695 9.156 140.015 9.156C 140.795 9.156 141.299 8.892 141.623 8.532L 141.731 9L 142.871 9L 142.871 4.956C 142.871 3.588 142.235 2.58 140.375 2.58C 139.331 2.58 138.491 2.976 137.987 3.3L 138.491 4.212C 138.947 3.96 139.547 3.72 140.243 3.72C 141.071 3.72 141.575 4.152 141.575 4.872L 141.575 5.46C 141.335 5.244 140.795 5.004 140.075 5.004C 138.635 5.004 137.651 5.856 137.651 7.068ZM 138.959 7.032C 138.959 6.408 139.487 5.952 140.279 5.952C 141.071 5.952 141.611 6.372 141.611 7.032C 141.611 7.68 141.059 8.112 140.291 8.112C 139.499 8.112 138.959 7.656 138.959 7.032ZM 149.214 3.348C 148.854 3.036 148.158 2.58 147.126 2.58C 145.266 2.58 143.862 3.996 143.862 5.868C 143.862 7.752 145.23 9.156 147.138 9.156C 148.182 9.156 148.902 8.652 149.214 8.376L 148.842 7.296C 148.578 7.536 148.014 7.992 147.21 7.992C 146.046 7.992 145.182 7.068 145.182 5.868C 145.182 4.68 145.974 3.768 147.162 3.768C 147.954 3.768 148.53 4.176 148.818 4.452L 149.214 3.348ZM 155.225 3.348C 154.865 3.036 154.169 2.58 153.137 2.58C 151.277 2.58 149.873 3.996 149.873 5.868C 149.873 7.752 151.241 9.156 153.149 9.156C 154.193 9.156 154.913 8.652 155.225 8.376L 154.853 7.296C 154.589 7.536 154.025 7.992 153.221 7.992C 152.057 7.992 151.193 7.068 151.193 5.868C 151.193 4.68 151.985 3.768 153.173 3.768C 153.965 3.768 154.541 4.176 154.829 4.452L 155.225 3.348ZM 157.205 5.88C 157.205 4.656 158.021 3.744 159.197 3.744C 160.361 3.744 161.213 4.644 161.213 5.868C 161.213 7.092 160.361 7.992 159.197 7.992C 158.033 7.992 157.205 7.116 157.205 5.88ZM 155.885 5.88C 155.885 7.776 157.277 9.156 159.197 9.156C 161.105 9.156 162.521 7.752 162.521 5.868C 162.521 3.984 161.129 2.58 159.197 2.58C 157.313 2.58 155.885 3.984 155.885 5.88ZM 165.741 9.156C 166.581 9.156 167.229 8.688 167.505 8.184L 167.505 9L 168.789 9L 168.789 2.736L 167.481 2.736L 167.481 6.516C 167.481 7.38 166.941 7.98 166.113 7.98C 165.393 7.98 164.853 7.476 164.853 6.612L 164.853 2.736L 163.557 2.736L 163.557 6.504C 163.557 7.872 164.121 9.156 165.741 9.156ZM 173.251 2.58C 172.411 2.58 171.763 3.06 171.487 3.552L 171.487 2.736L 170.203 2.736L 170.203 9L 171.511 9L 171.511 5.22C 171.511 4.368 172.051 3.756 172.879 3.756C 173.599 3.756 174.139 4.26 174.139 5.124L 174.139 9L 175.435 9L 175.435 5.232C 175.435 3.864 174.871 2.58 173.251 2.58ZM 176.955 2.736L 176.259 2.736L 176.259 3.816L 176.955 3.816L 176.955 6.528C 176.955 8.064 177.411 9.084 178.935 9.084C 179.343 9.084 179.571 9.036 179.571 9.036L 179.571 7.908C 179.571 7.908 179.427 7.92 179.319 7.92C 178.623 7.92 178.251 7.704 178.251 6.732L 178.251 3.816L 179.523 3.816L 179.523 2.736L 178.251 2.736L 178.251 1.428L 176.955 1.428L 176.955 2.736Z"/>
<path id="path8_fill" d="M 15.1113 10.2L 179.883 10.2L 179.883 10.8L 15.1113 10.8L 15.1113 10.2Z"/>
</defs>
</svg>
