<svg width="1574" height="958" viewBox="0 0 1574 958" fill="none" xmlns="http://www.w3.org/2000/svg">
<path fill-rule="evenodd" clip-rule="evenodd" d="M252.913 0.975486L253.495 0H254.63H1329.28H1330.44L1331.02 1.00556L1572.28 422.006L1572.85 423L1573.43 424H1574V425V426V455V457H1572H1338.68L1447.98 956.786L1448.24 958H1447H1419.92H1419.15L1418.95 957.257L1286.03 457.257L1287 457H305L305.967 457.255L173.882 957.255L173.685 958H172.915H146H144.759L145.023 956.788L253.635 457H2H0V455V426V425V424H0.596458L1.19292 423L1.80401 421.975L252.913 0.975486ZM1288.03 457L1420.68 956H1445.76L1336.68 457.214L1337.66 457H1288.03ZM254.658 457H303.966L172.145 956H147.241L255.635 457.212L254.658 457ZM2 425.551V455H1572V425.532L1571.69 425H1570.55H3.52167H2.32874L2.31412 425.025L2 425.551ZM5.85041 423H3.52167L4.71457 421L254.63 2H1329.28L1569.4 421L1570.55 423H1568.24H5.85041Z" fill="black"/>
</svg>
