{
  "accessors": [
    {
      "bufferView": 1,
      "componentType": 5126,
      "count": 65532,
      "max": [
        2.4733052253723145,
        3.9242157936096191,
        3.730010986328125
      ],
      "min": [
        0.11273801326751709,
        0,
        0.22755002975463867
      ],
      "type": "VEC3"
    },
    {
      "bufferView": 1,
      "byteOffset": 786384,
      "componentType": 5126,
      "count": 65532,
      "max": [
        0.99995541572570801,
        1,
        0.99998998641967773
      ],
      "min": [
        -0.99997860193252563,
        -0.9999731183052063,
        -0.99999827146530151
      ],
      "type": "VEC3"
    },
    {
      "bufferView": 0,
      "componentType": 5125,
      "count": 339390,
      "max": [
        65531
      ],
      "min": [
        0
      ],
      "type": "SCALAR"
    },
    {
      "bufferView": 1,
      "byteOffset": 1572768,
      "componentType": 5126,
      "count": 65534,
      "max": [
        2.5175321102142334,
        3.9242157936096191,
        3.7298951148986816
      ],
      "min": [
        0.59607803821563721,
        0.00013995170593261719,
        0
      ],
      "type": "VEC3"
    },
    {
      "bufferView": 1,
      "byteOffset": 2359176,
      "componentType": 5126,
      "count": 65534,
      "max": [
        0.99997860193252563,
        0.99992352724075317,
        0.99997568130493164
      ],
      "min": [
        -0.99996936321258545,
        -0.9999731183052063,
        -0.99999141693115234
      ],
      "type": "VEC3"
    },
    {
      "bufferView": 0,
      "byteOffset": 1357560,
      "componentType": 5125,
      "count": 340182,
      "max": [
        65533
      ],
      "min": [
        0
      ],
      "type": "SCALAR"
    },
    {
      "bufferView": 1,
      "byteOffset": 3145584,
      "componentType": 5126,
      "count": 65532,
      "max": [
        2.4733052253723145,
        3.9233450889587402,
        3.7298760414123535
      ],
      "min": [
        0.044416069984436035,
        0.0037560462951660156,
        0
      ],
      "type": "VEC3"
    },
    {
      "bufferView": 1,
      "byteOffset": 3931968,
      "componentType": 5126,
      "count": 65532,
      "max": [
        0.99994009733200073,
        0.99953955411911011,
        0.99998998641967773
      ],
      "min": [
        -0.99997860193252563,
        -0.99995535612106323,
        -0.99999827146530151
      ],
      "type": "VEC3"
    },
    {
      "bufferView": 0,
      "byteOffset": 2718288,
      "componentType": 5125,
      "count": 333225,
      "max": [
        65531
      ],
      "min": [
        0
      ],
      "type": "SCALAR"
    },
    {
      "bufferView": 1,
      "byteOffset": 4718352,
      "componentType": 5126,
      "count": 18243,
      "max": [
        1.2587660551071167,
        3.9239931106567383,
        3.730010986328125
      ],
      "min": [
        0,
        0.020385980606079102,
        0.00057709217071533203
      ],
      "type": "VEC3"
    },
    {
      "bufferView": 1,
      "byteOffset": 4937268,
      "componentType": 5126,
      "count": 18243,
      "max": [
        0.9985775351524353,
        0.99995338916778564,
        0.99997729063034058
      ],
      "min": [
        -0.99991977214813232,
        -0.99985975027084351,
        -0.99998325109481812
      ],
      "type": "VEC3"
    },
    {
      "bufferView": 0,
      "byteOffset": 4051188,
      "componentType": 5125,
      "count": 72999,
      "max": [
        18242
      ],
      "min": [
        0
      ],
      "type": "SCALAR"
    }
  ],
  "asset": {
    "extras": {
      "author": "Funderbird (https://sketchfab.com/Funderbird)",
      "license": "CC-BY-4.0 (http://creativecommons.org/licenses/by/4.0/)",
      "source": "https://sketchfab.com/models/db5af30382ef40bb8622f65ea0beafc0",
      "title": "Chicken"
    },
    "generator": "Sketchfab-3.18.6",
    "version": "2.0"
  },
  "bufferViews": [
    {
      "buffer": 0,
      "byteLength": 4343184,
      "byteOffset": 0,
      "name": "floatBufferViews",
      "target": 34963
    },
    {
      "buffer": 0,
      "byteLength": 5156184,
      "byteOffset": 4343184,
      "byteStride": 12,
      "name": "floatBufferViews",
      "target": 34962
    }
  ],
  "buffers": [
    {
      "byteLength": 9499368,
      "uri": "scene.bin"
    }
  ],
  "materials": [
    {
      "doubleSided": true,
      "emissiveFactor": [
        0,
        0,
        0
      ],
      "name": "null",
      "pbrMetallicRoughness": {
        "baseColorFactor": [
          1,
          1,
          1,
          1
        ],
        "metallicFactor": 0,
        "roughnessFactor": 0.59999999999999998
      }
    }
  ],
  "meshes": [
    {
      "primitives": [
        {
          "attributes": {
            "NORMAL": 1,
            "POSITION": 0
          },
          "indices": 2,
          "material": 0,
          "mode": 4
        }
      ]
    },
    {
      "primitives": [
        {
          "attributes": {
            "NORMAL": 4,
            "POSITION": 3
          },
          "indices": 5,
          "material": 0,
          "mode": 4
        }
      ]
    },
    {
      "primitives": [
        {
          "attributes": {
            "NORMAL": 7,
            "POSITION": 6
          },
          "indices": 8,
          "material": 0,
          "mode": 4
        }
      ]
    },
    {
      "primitives": [
        {
          "attributes": {
            "NORMAL": 10,
            "POSITION": 9
          },
          "indices": 11,
          "material": 0,
          "mode": 4
        }
      ]
    }
  ],
  "nodes": [
    {
      "children": [
        1
      ],
      "name": "RootNode (gltf orientation matrix)",
      "rotation": [
        -0.70710678118654746,
        -0,
        -0,
        0.70710678118654757
      ]
    },
    {
      "children": [
        2
      ],
      "name": "RootNode (model correction matrix)"
    },
    {
      "children": [
        3,
        4,
        5,
        6
      ],
      "matrix": [
        1,
        0,
        0,
        0,
        0,
        1,
        0,
        0,
        0,
        0,
        1,
        0,
        -1.2587660551071167,
        -2.2823469638824463,
        -1.4460090398788452,
        1
      ],
      "name": "Chicken_ex.obj.cleaner.gles"
    },
    {
      "mesh": 0,
      "name": ""
    },
    {
      "mesh": 1,
      "name": ""
    },
    {
      "mesh": 2,
      "name": ""
    },
    {
      "mesh": 3,
      "name": ""
    }
  ],
  "scene": 0,
  "scenes": [
    {
      "name": "OSG_Scene",
      "nodes": [
        0
      ]
    }
  ]
}

